<?xml version="1.0" encoding="UTF-8"?>
<svg viewBox="0 0 157.641735516614 193.641734636614" xmlns="http://www.w3.org/2000/svg">
 <path d="m62.483 168.98-1.8998-0.42225-0.92879-0.63337-0.50662-1.4778-0.21109-1.4356 0.08444-1.1823 0.84436-2.6179-0.21109-1.9846-0.88658-3.0402-1.0977-2.2801-0.88658-2.0268-0.54883-2.3224-0.04222-1.9001 0.59105-2.2801 1.0554-1.9846 1.0977-1.6045 0.92879-2.1957 0.42218-1.8157-0.04222-2.1534-0.50662-2.4068-0.84436-1.2667-1.8576-2.2379-0.16887-0.76005 0.08444-1.3934 0.25331-1.0134 1.0132-1.6468h42.133l0.04222 1.1823 0.97101 1.8579 0.71771 2.5757 0.04222 1.8579-0.59106 3.3357-2.1109 5.8692-0.4644 2.1957v1.2667l1.0554 4.3491 0.4644 1.6468 1.0977 2.1112 0.54884 2.3224-0.04222 1.689-0.67549 2.829-1.5621 4.0958-0.80214 4.3491-0.59105 0.42224-1.0554 0.08445-34.914 0.04223z" fill="#c0c0c0" fill-rule="evenodd" stroke="#000" stroke-linecap="round" stroke-linejoin="round" stroke-width="1.2665"/>
 <path d="m63.58 168.98 7.3037 7.3471h17.309l7.3037-7.3471h-31.917z" fill-rule="evenodd" stroke="#000" stroke-linecap="round" stroke-linejoin="round" stroke-width="1.2665"/>
 <path d="m100.18 124.9h-41.965l-0.37996-2.9979-0.71771-3.378-1.6887-4.7714-2.3642-4.5602-4.4329-7.6004-5.4039-10.345-1.4354-3.5469-1.0132-4.1802-0.42218-3.3357-0.08444-3.8424 0.42218-4.0536 0.67549-3.5891 1.1821-3.9269 1.942-4.3491 2.4486-4.138 2.702-3.6735 3.3352-3.6735 3.1241-2.5757 3.3774-2.1534 4.7284-2.2379 4.5173-1.6045 3.884-0.92894 3.673-0.42224h3.9685l5.1506 0.50669 5.1506 1.0134 4.3062 1.4779 3.5041 1.8156 4.3907 3.0402 4.0951 3.5469 2.6597 2.8713 2.4486 3.2091 2.0687 3.5469 1.8576 4.138 1.0977 3.3357 0.80214 3.758 0.33774 3.7158-0.08444 4.2647-0.59105 4.4758-1.0977 4.6025-1.1821 3.6735-5.7416 9.4583-4.9817 8.9094-1.7732 4.0536-1.5621 5.067-0.84435 4.5602-0.08444 0.84449z" fill="#ff0" fill-rule="evenodd" stroke="#000" stroke-linecap="round" stroke-linejoin="round" stroke-width="1.2665"/>
 <path d="m58.219 131.15 42.176 7.7271" fill="none" stroke="#000" stroke-linecap="round" stroke-linejoin="round" stroke-width="1.2665"/>
 <path d="m58.345 142.97 42.176 7.7271" fill="none" stroke="#000" stroke-linecap="round" stroke-linejoin="round" stroke-width="1.2665"/>
 <path d="m58.345 154.8 42.176 7.7693" fill="none" stroke="#000" stroke-linecap="round" stroke-linejoin="round" stroke-width="1.2665"/>
 <path d="m134.46 189.42v-0.21112" fill="none" stroke="#000" stroke-linecap="round" stroke-linejoin="round" stroke-width=".04222"/>
 <path d="m68.35082,124.77351-6.29047-42.30898 .08444-4.26468 .37996-2.66015 .67549-1.9001 .75992-1.01339 1.05545-.54892 .54883-.12667 1.47763.08445 1.35097.63337 .84436.92894 .67549,1.64676 .75992,4.26468 .33774,4.6447-.08444,2.70237-.50662,1.18229-.75992.54892-.37996.12667-.88658-.08445-.88658-.54892-.63327-1.18229-.84436-3.50464-.33774-2.5757 .04222-2.36457 .54883-1.85788 1.22432-2.069 2.44864-2.61792 1.85759-1.26674 1.09767-.21112 1.26654.46447 1.26654,1.14006 1.35097,2.11123 .84436,2.61792 .80214,4.72915 .12665,2.36457-.25331,1.98455-.4644,1.01339-.92879.54892-1.22432.12667-1.05545-.42225-.59105-.84449-.4644-2.15345-.67549-7.00927 .12665-2.069 .54883-1.35119 1.13988-1.18229 2.1109-1.26674 2.78638-1.01339 .80214-.12667 1.35097.08445 1.13988.59114 1.39319,1.77343 1.39319,2.95572 .63327,2.74459 .12665,2.53347-.33774,3.37796-.54883,1.81565-.50661.76004-1.01323.5067-.88658.04222-.75992-.21112-.67549-.71782-.59105-1.77343-.37996-3.50464v-4.60247l.29553-2.28012 .63327-1.39341 1.09767-.92894 1.60428-.54892 1.26654-.04222 1.35097.38002 1.1821.88671 .88658,1.60453 .37996,1.81565 .04222,1.60453-4.77063,47.41816" fill="none" stroke="#000" stroke-linecap="round" stroke-linejoin="round" stroke-width="1.2665"/>
 <path d="m4.264 76.469h22.755v3.4624h-22.755v-3.4624z" fill="#ff0" fill-rule="evenodd" stroke="#000" stroke-linecap="round" stroke-linejoin="round" stroke-width=".04222"/>
 <path d="m130.66 76.258h22.798v3.4624h-22.798v-3.4624z" fill="#ff0" fill-rule="evenodd" stroke="#000" stroke-linecap="round" stroke-linejoin="round" stroke-width=".04222"/>
 <path d="m80.425 4.2647h-3.4619v22.759h3.4619v-22.759z" fill="#ff0" fill-rule="evenodd" stroke="#000" stroke-linecap="round" stroke-linejoin="round" stroke-width=".04222"/>
 <path d="m26.302 24.448-2.4909 2.449 16.127 16.172 2.4486-2.4912-16.085-16.13z" fill="#ff0" fill-rule="evenodd" stroke="#000" stroke-linecap="round" stroke-linejoin="round" stroke-width=".04222"/>
 <path d="m131.17 26.897-2.4486-2.449-16.127 16.13 2.4486 2.4912 16.127-16.172z" fill="#ff0" fill-rule="evenodd" stroke="#000" stroke-linecap="round" stroke-linejoin="round" stroke-width=".04222"/>
 <path d="m124.59 104.89-2.4486 2.4912 16.085 16.13 2.4909-2.4912-16.127-16.13z" fill="#ff0" fill-rule="evenodd" stroke="#000" stroke-linecap="round" stroke-linejoin="round" stroke-width=".04222"/>
 <path d="m37.405 109.11-2.4486-2.449-16.127 16.088 2.4909 2.4912 16.085-16.13z" fill="#ff0" fill-rule="evenodd" stroke="#000" stroke-linecap="round" stroke-linejoin="round" stroke-width=".04222"/>
</svg>
