<?xml version="1.0" encoding="UTF-8"?>
<svg viewBox="0 0 800 800" xmlns="http://www.w3.org/2000/svg">
 <g fill-rule="evenodd">
  <path d="m729.07 368.57a330.8 315.21 0 1 1 -661.6 0 330.8 315.21 0 1 1 661.6 0z" stroke="#f00" stroke-linejoin="round"/>
  <path d="m524.57 37.883l-302.65 293.8 163.14 5.4281-258.85 245.12 109.64 1.9486-181.66 191.23 438.95-233.26-163.4 1.6412 330.75-251.65-178.91-0.4199 293.95-261.67-250.96 7.8428h1e-4z" fill="#7f7f7f" opacity=".789" stroke-width="0"/>
  <path d="m516.07 31.096l-302.65 293.8 163.14 5.428-258.84 245.12 109.64 1.9486-181.66 191.23 438.95-233.26-163.4 1.6422 330.75-251.66-178.91-0.4199 293.95-261.67-250.96 7.843z" fill="#ff0" stroke="#f00" stroke-width=".605"/>
 </g>
</svg>
