<?xml version="1.0" encoding="UTF-8"?>
<!DOCTYPE svg  PUBLIC '-//W3C//DTD SVG 1.1//EN'  'http://www.w3.org/Graphics/SVG/1.1/DTD/svg11.dtd'>
<svg enable-background="new -121 -121 2162 2162" version="1.1" viewBox="-121 -121 2162 2162" xml:space="preserve" xmlns="http://www.w3.org/2000/svg">
				<path d="m1352.4 3.56c0.0701-1.19 0.2001-2.38 0.39-3.56h2.7c0.0801 1.17 0.17 2.35 0.26 3.52 0.14 19.47 0.13 38.95 0.01 58.42 0.38 2.19-3.7 2.12-3.33 0-0.15-19.46-0.08-38.92-0.03-58.38z" fill="#000005"/>
				<path d="m1187.1 93.44c0.04-30 0-60 0.02-90 0.84 0 2.52-0.01 3.36-0.01-0.04 29.94 0.33 59.91-0.1799 89.83-0.8001 0.05-2.4001 0.14-3.2001 0.18z" fill="#000005"/>
				<path d="m1607.7 16.95c-0.1001-4.35 0.4199-8.76-0.4501-13.06 1.03-0.09 3.09-0.27 4.13-0.36-0.24 18.83-0.04 37.66-0.1 56.49 0.02 1.25-0.23 2.44-0.73 3.56-0.9401-0.32-3.2101 0.25-2.74-1.46-0.27-15.05-0.02-30.11-0.1099-45.17z" fill="#000004"/>
				<path d="m1502.8 63.27c-0.8501-19.79 0.49-39.69-0.66-59.46 0.99-0.07 2.96-0.23 3.9399-0.3 0.05 19.16 0.11 38.33-0.01 57.49 0.27 2.12-1.3999 3.21-3.2699 2.27z" fill="#000005"/>
				<path d="m1472.5 61.06c-0.02-19.2-0.01-38.4 0.01-57.6 1.12 0.03 2.26 0.07 3.41 0.11 0.25 15.47-0.0801 30.94-0.02 46.41-0.01 4.38 0.53 8.78-0.14 13.13-1.66 1.25-3.6901-0.07-3.26-2.05z" fill="#000005"/>
				<path d="m1848.1 33.49c-0.37-10 0.14-20.01 0-30.03 0.83 0.02 2.5 0.04 3.33 0.05l0.14 0.01c-0.14 8.66-0.0599 17.33-0.0499 26-0.01 1.68-0.02 3.35 0.02 5.03-0.0701 8.17-0.0601 16.34 0.0099 24.51-0.1 1.36 0.04 2.8-0.5 4.07-0.73 0.1-2.1899 0.3-2.9199 0.4 0.12-8.25-0.4501-16.49-0.1901-24.74 0.04-1.76 0.1001-3.53 0.16-5.3z" fill="#000005"/>
				<path d="m1596.1 3.81c0.21 19.83 0.09 39.67 0.0599 59.5h-3.4301c-0.1699-19.94-0.0399-39.88-0.0699-59.82 0.86 0.08 2.58 0.24 3.4401 0.32z" fill="#000004"/>
				<path d="m1427.4 61.98c-0.1799-19.46-0.0599-38.94-0.0599-58.41l0.02-0.35c1.1699 0.14 2.34 0.27 3.5599 0.4-0.36 19.46 0.0801 38.93-0.21 58.39 0.4501 2.15-3.6199 2.02-3.31-0.03z" fill="#000005"/>
				<path d="m1836.5 45.16c-0.0599-13.92 0.08-27.84-0.0699-41.76 3.89 0.1 7.7899 0.01 11.7 0.06 0.14 10.02-0.37 20.03 0 30.03-3.9801 3.79-7.8901 7.65-11.63 11.67z" fill="#92D7FF"/>
				<path d="m1277.2 3.52c-3.6699 0.43-7.34 0.08-11-0.23l0.01-0.14c3.55 0.15 7.11 0 10.67 0.16 0.3199-1.1 0.65-2.21 1-3.31h1.75c0.54 1.02 1.08 2.06 1.62 3.1 2.59 0.26 5.1899 0.38 7.8 0.37v0.03c-2.8101 0-5.6101-0.07-8.41-0.21-0.0601 19.56 0.12 39.14-0.0801 58.69 0.28 2.08-3.8099 2.14-3.3099-0.01-0.16-19.48-0.03-38.97-0.05-58.45z" fill="#000005"/>
				<path d="m1085.5 3.52c-0.25 20.05 0.13 40.11-0.2 60.16-0.78-0.17-2.3301-0.52-3.1001-0.69-0.5699-2.62-0.4099-5.31-0.3999-7.97 0.1-17.15-0.0801-34.3 0.09-51.44 0.9-0.02 2.7-0.05 3.61-0.06z" fill="#000004"/>
				<path d="m1458.8 135c0.0699-4.27 2.0499-8.33 4.51-11.75 2.1899-3.39 7.35-3.24 10.28-0.91 0.9601 0.62 2.42 1.98 3.53 0.82 0.87-0.55 1.35-1.57 1.35-2.57l6.73 0.04v0.33c0.27 5.02 0.62 10.06 0.01 15.07-0.1499 1.82-0.36 3.77-0.27 5.66l-5.8799 0.27c-0.14-1.49-1.4501-2.95-3.0701-2.4-2.97 1.11-5.6799 3.37-9.01 3.05-4.1099-0.08-8.0498-3.36-8.1799-7.61z" fill="#92D7FF"/>
				<path d="m1255.4 168.98c0.1 3.81 4.24 5.95 7.58 6.37 3.1201-0.83 6.9901-1.98 8.1801-5.37 0.76-3.2 0.04-7.55-3.1899-9.1-2.8501-0.6-5.9801-0.76-8.7201 0.32-2.8401 1.37-4.1601 4.76-3.8501 7.78zm-0.59 28.12c3.13 4.13 9.12 4.33 13.73 3.1 5-1.79 6.14-8.49 4-12.82-1.8101-3.63-5.9301-4.94-9.49-6.12-1.87 1.02-3.79 1.96-5.54 3.15-4.0399 2.62-5.06 8.65-2.7 12.69zm-6.52 1.71c-2.64-6.99-0.62-15.92 6.09-19.87-2.23-1.8-4.49-3.9-5.13-6.81-2.2799-7.5 3.41-15.72 10.89-17.2 4.73-0.9 10.32-0.6 14.07 2.8 3.7699 3.49 4.0399 9.15 3.25 13.91-0.6001 3.12-3.65 4.71-6.03 6.37 3.26 1.81 6.79 3.99 7.97 7.77 1.67 5.26 1.6 11.85-2.5 16-4.66 4.65-11.75 5.53-17.98 4.51-4.32-0.91-8.95-3.11-10.63-7.48z" fill="#000005"/>
				<path d="m995.29 3.57c-0.23 19.95 0.01 39.91-0.12 59.87-1.71 0.13-3.96 0.06-3.49-2.37-0.09-19.16-0.01-38.32-0.02-57.48 0.91 0 2.72-0.02 3.63-0.02z" fill="#000004"/>
				<path d="m1236.9 3.11c-0.9701-0.94-1.7301-2.07-2.5601-3.11h12.96c-0.0299 0.87-0.1 2.6-0.13 3.47h-0.0499c-3.41-0.15-6.8299-0.17-10.22-0.36z" fill="#004"/>
				<path d="m1322.3 61.94c-0.23-19.45-0.09-38.92-0.0699-58.37 0.09-1.2 0.24-2.39 0.45-3.57h2.6801c0.0699 1.17 0.16 2.33 0.25 3.5 0.09 19.48 0.1699 38.98-0.03 58.45 0.3898 2.24-3.7002 2.21-3.2802-0.01z" fill="#000005"/>
				<path d="m1791.2 92.6c0.5601-29.71 0.1801-59.45 0.2-89.17 3.88 0.04 7.78 0.03 11.68-0.02 0.01 20.04-0.0599 40.07 0.04 60.11 1.02-0.4 3.49 0.23 3.34-1.54 0.17-19.52 0.03-39.05 0.0601-58.57 3.85 0.06 7.72 0.11 11.59-0.05 0.01 20.05-0.01 40.11 0.01 60.17-8 7.52-15.55 15.52-23.43 23.17-1.3199 1.61-3.87 3.17-2.71 5.63-0.2002 0.06-0.59 0.2-0.7801 0.27z" fill="#92D7FF"/>
				<path d="m1097.5 161.23c-3.33-0.2-2.98-6.18 0.3099-5.93 9.7101-0.26 19.42 0.49 29.15 0.2 1.9301 0.31 4.78-0.61 6 1.42 0.13 3.47-2.87 5.77-4.87 8.2-6.1799 6.85-9.41 15.62-13.25 23.85-2.58 5.54-3.77 11.7-7 16.93-1.76 2.93-6.66 0.21-5.46-2.85 1.48-5.34 4.02-10.31 5.95-15.49 3.41-9.16 7.5901-18.18 14.05-25.63-8.2899-0.16-16.61-0.04-24.88-0.7z" fill="#000005"/>
				<path d="m1205.6 3.35c-0.12 19.52 0.13 39.06-0.11 58.57 0.41 2.22-3.78 2.15-3.3101 0.04-0.1799-19.52-0.02-39.05-0.0599-58.57 1.14-0.02 2.31-0.05 3.48-0.04z" fill="#000005"/>
				<path d="m1788 89.03c0.35-28.53-0.09-57.08 0.14-85.61 0.83 0 2.49 0.01 3.3199 0.01-0.0199 29.72 0.3601 59.46-0.2 89.17-0.77 0.27-2.3 0.8-3.0699 1.07-0.12-1.55-0.19-3.09-0.19-4.64z" fill="#000005"/>
				<path d="m1459.4 145.69c-5.54-3.43-7.0901-10.82-5.02-16.71 1.7999-5.28 4.6899-10.97 10.06-13.33 4.42-1.25 9.53-0.12 13.05 2.84 0.66 0.52 0.96 1.31 0.96 2.1 0 1-0.48 2.02-1.35 2.57-1.11 1.16-2.5699-0.2-3.53-0.82-2.9299-2.33-8.09-2.48-10.28 0.91-2.4601 3.42-4.4401 7.48-4.51 11.75 0.13 4.25 4.0699 7.53 8.1799 7.61 3.3301 0.32 6.04-1.94 9.01-3.05 1.62-0.55 2.9301 0.91 3.0701 2.4 0.0699 0.81-0.2001 1.62-0.9501 2.13-5.0599 4.31-13.11 5.87-18.69 1.6z" fill="#000004"/>
				<path d="m1232.3 61.99c-0.16-19.46-0.13-38.93-0.01-58.4 0.0699-1.2 0.21-2.39 0.35-3.59h1.74c0.83 1.04 1.59 2.17 2.5601 3.11 3.39 0.19 6.8099 0.21 10.22 0.36v0.01c-3.83 0.26-7.67 0.34-11.47-0.21-0.05 19.56 0.12 39.13-0.0701 58.68 0.32 2.1-3.77 2.2-3.32 0.04z" fill="#000005"/>
				<path d="m1412.3 118.99c0.12-38.47-0.04-76.95 0.08-115.42 0.0599-1.2 0.1799-2.39 0.36-3.57h2.7c0.0701 1.2 0.17 2.4 0.26 3.61 0.1901 39.96 0.01 79.92 0.0901 119.88-0.7201-0.01-2.15-0.01-2.8601-0.02-0.8301-1.33-0.5301-3-0.63-4.48z" fill="#000005"/>
				<path d="m1832.9 48.71c0.0499-15.02-0.0701-30.05 0.0599-45.07v-0.35c1.13 0.04 2.27 0.08 3.4401 0.11 0.1499 13.92 0.01 27.84 0.0699 41.76-0.01 1.48 0 2.95 0.03 4.43-0.15 4.54 0.3099 9.12-0.35 13.62-1.0601 0.14-2.12 0.18-3.14 0.24-0.1-3.21-0.12-6.41-0.11-9.62-0.0299-1.71-0.0299-3.41 1e-4 -5.12z" fill="#000004"/>
				<path d="m1397.4 61.95c-0.25-19.46-0.0801-38.93-0.0701-58.39 0.0701-1.19 0.2201-2.38 0.4301-3.56h2.66c0.08 1.2 0.1799 2.39 0.2699 3.59 0.1101 19.44 0.1801 38.9-0.0199 58.33 0.38 2.26-3.68 2.29-3.27 0.03z" fill="#000005"/>
				<path d="m1532.6 3.56c0.87-0.02 2.62-0.05 3.49-0.07 0.1 19.92 0.08 39.84 0.01 59.75-0.86 0.04-2.5601 0.11-3.42 0.15-0.2-19.94-0.0401-39.89-0.08-59.83z" fill="#000004"/>
				<path d="m1220.2 63.28c-0.74 0.03-2.22 0.08-2.9601 0.11-0.0199-20-0.0199-40 0.01-60 1.1001-0.03 2.2301-0.08 3.3601-0.12l0.0099 0.32c0.12 18.11-0.0499 36.24 0.0901 54.36-0.06 1.78 0.07 3.62-0.51 5.33z" fill="#000005"/>
				<path d="m1532.9 173.57c-2.53 0.57-4.84-2.18-4.22-4.59 1.71-2.98 4.8999-4.58 7.33-6.9 2.67-2.33 5.65-5.45 9.59-4.6 2.61 1.96 0.37 5.73 0.84 8.47 1.3501 14.73-3.2899 29.34-0.9199 44.05 2.4199 0.39 5.97-0.79 7.33 1.95 1.4601 2.02-0.4 5.38-2.86 5.31-6.35 0.06-12.71 0.2-19.04-0.07-3.0299-0.3-3.5299-4.93-0.9099-6.2 2.4399-1.16 5.2999-0.64 7.9399-0.79-1.8099-13.53 0.8301-27.02 1.1801-40.55-2.0802 1.33-3.9801 2.97-6.2602 3.92z" fill="#000005"/>
				<path d="m1259.2 161.2c2.74-1.08 5.87-0.92 8.7201-0.32 3.23 1.55 3.95 5.9 3.1899 9.1-1.1899 3.39-5.0599 4.54-8.1801 5.37-3.34-0.42-7.48-2.56-7.58-6.37-0.3099-3.02 1.0101-6.41 3.8501-7.78z" fill="#92D7FF"/>
				<path d="m1667.9 63.27c-0.05-19.93-0.0699-39.86 0.01-59.78 0.88 0.01 2.64 0.05 3.52 0.07-0.09 19.93 0.11 39.87-0.1 59.8-0.8601-0.02-2.57-0.07-3.43-0.09z" fill="#000004"/>
				<path d="m1262.1 123.53c0-39.98-0.1-79.96 0.05-119.94 0.09-1.2 0.26-2.4 0.4299-3.59h1.97c0.5601 1.04 1.1101 2.09 1.65 3.15l-0.01 0.14c-0.21-0.02-0.4099-0.04-0.62-0.06-0.0299 39.28 0.05 78.56-0.0399 117.84 0.45 2.49-1.46 2.69-3.43 2.46z" fill="#000005"/>
				<path d="m1066.9 3.5c1 0.08 2.99 0.22 3.99 0.3-0.89 4-0.4301 8.12-0.49 12.18-0.0701 15.79 0.12 31.59-0.1001 47.38-0.85-0.02-2.5499-0.06-3.3999-0.08-0.08-19.93-0.09-39.85 0-59.78z" fill="#000004"/>
				<path d="m1818.2 63.53c-0.02-20.06 0-40.12-0.01-60.17 1.11-0.05 2.22-0.11 3.37-0.17l0.01 0.38c0.15 18.66-0.0801 37.32 0.12 55.98-0.16 1.19-0.05 2.49-0.6 3.59-0.72 0.1-2.17 0.29-2.89 0.39z" fill="#000005"/>
				<path d="m1727.8 3.45c0.88 0.03 2.64 0.08 3.52 0.11-0.1 20.02 0.14 40.04-0.12 60.06-0.8-0.15-2.39-0.44-3.1899-0.59-0.4701-3.33-0.26-6.7-0.26-10.05 0.0499-16.51-0.0701-33.02 0.0499-49.53z" fill="#000004"/>
				<path d="m1742.8 53.02c0.0199-16.47-0.01-32.95 0.0099-49.43 0.91-0.01 2.7201-0.05 3.63-0.06-0.22 19.9 0.3 39.83-0.25 59.71-0.58 0.07-1.73 0.19-2.2999 0.25-2.2001-2.66-0.6701-7.1-1.09-10.47z" fill="#000005"/>
				<path d="m1656.3 63.46c-1.73 0.1-3.88 0.08-3.46-2.34-0.14-19.17-0.02-38.35-0.04-57.52 0.89-0.02 2.6799-0.06 3.5699-0.08-0.0799 19.98 0.0601 39.96-0.0699 59.94z" fill="#000004"/>
				<path d="m1281.3 3.1c-0.54-1.04-1.08-2.08-1.62-3.1h13.29c-0.4 1.13-0.77 2.27-1.1001 3.41-0.9299 0.04-1.85 0.06-2.7699 0.06-2.61 0.01-5.21-0.11-7.8-0.37z" fill="#004"/>
				<path d="m1576.3 158.45c-10.13 3.39-14.95 14.61-15.85 24.51-0.41 9.75 0.2599 20.37 6.0699 28.6 6.92 10.04 23.91 9.61 30.68-0.38 5.12-7.27 5.86-16.53 6.1899-25.14 0.36-8.21-1.72-16.88-7.33-23.09-4.8799-5.39-13.03-6.59-19.76-4.5zm-47.6 10.53c-0.62 2.41 1.6899 5.16 4.22 4.59 2.28-0.95 4.1799-2.59 6.26-3.92-0.35 13.53-2.99 27.02-1.1801 40.55-2.64 0.15-5.5-0.37-7.9399 0.79-2.62 1.27-2.12 5.9 0.9099 6.2 6.3301 0.27 12.69 0.13 19.04 0.07 2.46 0.07 4.3201-3.29 2.86-5.31-1.36-2.74-4.91-1.56-7.33-1.95-2.37-14.71 2.27-29.32 0.9199-44.05-0.47-2.74 1.77-6.51-0.84-8.47-3.9399-0.85-6.9199 2.27-9.59 4.6-2.4299 2.32-5.6199 3.92-7.3298 6.9zm-131.07 7.27c1.29 5.8 6.79 9.82 12.39 10.96 4.4301 0.92 8.7-0.96 12.85-2.26-1.97 3.87-3.97 7.91-7.38 10.73-4.0399 3.5-9.4 4.57-14.08 6.85-2.61 1.7-0.3101 6.26 2.63 5.42 4.27-0.79 8.0499-3.14 11.93-5 8.04-3.96 12.43-12.56 14.41-20.94 1.1801-5.87 2.1801-12.32-0.45-17.96-2.36-4.67-6.5601-8.89-11.92-9.69-5.58-0.61-11.93 0.27-15.99 4.5-4.6599 4.36-5.6898 11.39-4.3899 17.39zm-1025.4 866.15c-3.01 0.13-6.18-0.6801-7.67-3.4401l11.44-0.4099c0.9 0.7799 1.8 1.58 2.71 2.3899 24.99-24.78 49.79-49.76 74.7-74.62 165.27-165.36 330.76-330.49 496.02-495.86 30.53-30.64 61.28-61.07 91.68-91.84 0.88-0.9 1.7799-1.79 2.6899-2.67 0.89-1.87 2.01-3.75 2.04-5.88 0.37-4.88-3.75-9.68-8.73-9.59-222.35-0.06-444.7-0.01-667.04-0.03-4.57-0.28-8.26 3.22-9.26 7.5 0.01 0.84 0.04 2.51 0.06 3.35-0.08 221.21-0.08 442.43 0 663.64l-0.06 3.4h-0.01c0.91 2.4501 2.03 5.0901 4.54 6.3 2.9 1.87 6.48 1.13 9.59 0.28l-0.13-0.12c-0.86-0.82-1.71-1.6199-2.57-2.4zm725.34-881.17c8.27 0.66 16.59 0.54 24.88 0.7-6.46 7.45-10.64 16.47-14.05 25.63-1.9299 5.18-4.47 10.15-5.95 15.49-1.2001 3.06 3.7 5.78 5.46 2.85 3.23-5.23 4.42-11.39 7-16.93 3.84-8.23 7.0701-17 13.25-23.85 2-2.43 5-4.73 4.87-8.2-1.22-2.03-4.0699-1.11-6-1.42-9.73 0.29-19.44-0.46-29.15-0.2-3.29-0.25-3.6399 5.73-0.31 5.93zm151.7 10.9c0.64 2.91 2.9 5.01 5.13 6.81-6.71 3.95-8.73 12.88-6.09 19.87 1.6801 4.37 6.3101 6.57 10.63 7.48 6.23 1.02 13.32 0.14 17.98-4.51 4.1-4.15 4.17-10.74 2.5-16-1.1799-3.78-4.71-5.96-7.97-7.77 2.38-1.66 5.4299-3.25 6.03-6.37 0.7899-4.76 0.5199-10.42-3.25-13.91-3.75-3.4-9.3401-3.7-14.07-2.8-7.4799 1.48-13.17 9.7-10.89 17.2zm228.3-53.64c-3.52-2.96-8.63-4.09-13.05-2.84-5.37 2.36-8.26 8.05-10.06 13.33-2.0701 5.89-0.52 13.28 5.02 16.71 5.58 4.27 13.63 2.71 18.69-1.6 0.75-0.51 1.02-1.32 0.9501-2.13l5.8799-0.27c0.1001 2.04 0.54 4.01 1.77 5.69 2.1001 1.2 5.4301-0.75 4.49-3.32-0.76-4.72-0.47-9.6 0.49-14.27 2.4-3.39 5.3-6.46 8.6901-8.9 1.71 3.81 0.8199 8.07 1.36 12.09 0.6 5 0.88 10.03 1.29 15.04 0.71 3.07 6.1599 2.23 5.5699-1.08 0.02-7.05-1.89-14-1.4299-21.06 2.3099-1.98 5.5199-5.18 8.72-4 3.72 7.79 2.15 16.91 4.36 25.12 0.51 2.96 5.96 1.8 5.47-1.08-0.9399-8.69-1.7999-17.45-3.6-26-2.4399-6.39-11.41-4.96-15.23-0.65-1.48-1.87-3.21-4.17-5.89-3.96-4.78-0.1-7.4399 4.59-10.3 7.66 0.13-1.99 0.3501-3.97 0.42-5.96 0.37-2.34-3-4.6-4.76-2.6-1.38 1.76-1.16 4.11-1.16 6.22l-6.73-0.04c-1e-4 -0.79-0.3001-1.58-0.9601-2.1zm238.81 4.74c0.0701-39.89-0.0099-79.77 0.05-119.66l0.59-0.01c3.62-0.08 7.25-0.18 10.89-0.11-0.12 16.51 0 33.02-0.0499 49.53 0 3.35-0.2101 6.72 0.26 10.05 0.7999 0.15 2.3899 0.44 3.1899 0.59 0.26-20.02 0.02-40.04 0.12-60.06 3.8101-0.01 7.63-0.02 11.45 0.03-0.0199 16.48 0.01 32.96-0.0099 49.43 0.4199 3.37-1.1101 7.81 1.09 10.47 0.5699-0.06 1.72-0.18 2.2999-0.25 0.55-19.88 0.03-39.81 0.25-59.71l0.53-0.01c3.63-0.04 7.28-0.11 10.93-0.07-0.12 16.86 0.01 33.72-0.0701 50.57-0.01 3.01-0.15 6.03 0.3201 9.01 0.7899 0.15 2.37 0.45 3.15 0.59 0.2799-20.03 0.0199-40.06 0.1399-60.09l0.52-0.01c3.64-0.02 7.28-0.07 10.94-0.09-0.03 19.19-0.11 38.39 0.02 57.58-0.8401 2.6 3.5599 3.79 3.45 1.03 0.24-19.53 0.1-39.08 0.0599-58.62 3.89 0.01 7.78 0.01 11.68 0-0.23 28.53 0.21 57.08-0.14 85.61 0 1.55 0.0701 3.09 0.1901 4.64-5.5 4.62-10.2 10.12-15.41 15.07-214.5 214.48-428.98 428.97-643.47 643.45-107.04 106.97-213.92 214.11-321.1 320.94-265.17 265.18-530.36 530.35-795.53 795.54-2.9 2.9099-5.8 5.8199-8.81 8.63-0.34-6.4301-0.15-12.86-0.19-19.29v-348.99c-0.1101-50.02 0.2699-100.04 0.1599-150.06-0.01-233.97 0-467.94 0.08-701.9 0.87-41.34 0.2-82.7 0.57-124.05-0.2-35.69 0.58-71.37 0.13-107.06-0.03-81.63-0.36-163.27-0.41-244.9-0.51-10.99-0.25-21.99-0.31-32.98-0.04-42.34-0.01-84.69-0.26-127.03-0.04-3.78-0.07-7.91 2.31-11.08 2.98-4.68 8.71-6.64 14.05-6.47 13.48 0.05 26.96-0.03 40.43 0.05 0.07-1.18 0.18-2.36 0.28-3.54h2.67c0.18 1.19 0.31 2.39 0.4 3.6 3.88-0.06 7.76-0.07 11.64-0.03l0.01-0.33c1.18 0.14 2.35 0.27 3.53 0.4 3.78-0.09 7.55-0.12 11.33-0.08 0.11-1.19 0.27-2.38 0.46-3.56h2.66c0.1 1.17 0.18 2.33 0.26 3.5 3.91 0.06 7.82 0.06 11.74 0 0.07-1.17 0.16-2.33 0.25-3.5h2.69c0.18 1.19 0.33 2.38 0.43 3.58 3.86-0.04 7.73-0.04 11.59-0.01 0.08-1.2 0.21-2.39 0.37-3.57h2.72c0.1 1.17 0.18 2.35 0.26 3.52 3.92 0.05 7.83 0.03 11.75-0.05 0.07-1.16 0.15-2.31 0.23-3.47h2.71c0.19 1.19 0.34 2.38 0.44 3.58 3.87-0.04 7.73-0.04 11.6 0l0.01-0.26c1.12 0.03 2.25 0.06 3.38 0.09 3.88 0.08 7.76 0.05 11.64-0.01 1.15-0.01 2.31-0.01 3.46 0 3.86 0.04 7.71 0.08 11.57 0.02 1.11-0.01 2.23-0.02 3.36-0.01 3.9 0.03 7.81 0.11 11.72 0.02 1.15-0.02 2.31-0.04 3.47-0.04 3.85 0.03 7.71 0.08 11.58 0.1 0.89 0.01 2.67 0.03 3.57 0.05 3.8 0.01 7.6 0.02 11.41 0.02 0.87-0.03 2.61-0.07 3.48-0.09 3.81-0.05 7.62-0.04 11.43 0.02 1.14 0.02 2.28 0.05 3.42 0.09 3.84-0.02 7.68-0.02 11.51-0.04h0.32c0.83-0.02 2.49-0.05 3.31-0.07 3.59-0.08 7.19-0.16 10.78 0.15l0.3 0.22c0.99-0.09 2.96-0.26 3.94-0.35 3.64-0.16 7.28-0.01 10.91 0.04l0.58 0.01c0.92 0.01 2.76 0.03 3.68 0.04 3.8-0.03 7.59-0.03 11.39-0.02 0.87-0.03 2.62-0.07 3.49-0.09 3.62-0.06 7.26-0.01 10.89 0.05l0.62 0.02c0.92 0.01 2.77 0.02 3.69 0.03 3.79-0.03 7.59-0.03 11.38 0.02 0.91 0 2.72-0.02 3.63-0.02 3.79-0.03 7.59-0.03 11.38 0.02 0.92 0 2.76-0.01 3.68-0.02 3.79-0.03 7.58-0.03 11.37 0.03 0.89-0.01 2.67-0.01 3.55-0.02 3.79-0.04 7.58-0.04 11.37 0.01 0.91-0.01 2.74-0.03 3.65-0.03 3.78-0.02 7.56-0.02 11.34 0.03 0.91 0 2.73-0.02 3.64-0.02 3.81-0.03 7.62-0.03 11.44 0.01h3.56c3.8-0.04 7.61-0.04 11.42 0.01 0.89-0.01 2.68-0.04 3.58-0.05l0.65-0.01c3.64-0.05 7.27-0.11 10.91-0.06 0.88 0.02 2.63 0.06 3.51 0.09 3.8-0.01 7.6-0.02 11.41 0.03 0.9-0.01 2.7-0.01 3.6-0.02 3.85-0.04 7.69-0.03 11.54 0.06l0.01-0.37c1.13 0.05 2.27 0.09 3.42 0.13 3.84 0.13 7.69 0.08 11.55 0.03h3.5c3.86 0.02 7.73 0.05 11.6 0.02 1.15 0 2.31-0.01 3.47 0 3.88 0.03 7.76 0.05 11.65-0.07 1.14-0.02 2.28-0.04 3.44-0.04 3.77 0.06 7.54 0.13 11.32 0.15 0.88 0.01 2.65 0.02 3.54 0.03l0.54-0.01c0.99-0.03 1.98-0.03 2.97-0.04 2.63 0 5.2599 0.13 7.88 0.34 0.9-0.07 2.71-0.22 3.61-0.3 3.89-0.17 7.79-0.01 11.69-0.05 0.83-0.01 2.48-0.01 3.3-0.01 3.89 0.02 7.79 0 11.68-0.03 1.14 0 2.28 0 3.43 0.01 3.87 0.04 7.74 0.12 11.61-0.02 1.13-0.04 2.28-0.06 3.4301-0.06 3.86 0.05 7.72 0.18 11.59 0.04 1.12-0.04 2.26-0.09 3.4-0.14l0.02 0.33c3.86-0.04 7.72-0.03 11.58 0.04l0.03-0.48c1.16 0.11 2.33 0.21 3.5 0.32 3.85 0.11 7.7 0.12 11.56 0.04 0.1-1.17 0.25-2.33 0.44-3.49h2.66c0.09 1.19 0.18 2.38 0.26 3.57 3.88-0.04 7.75-0.03 11.63 0.04l0.02-0.39c1.1299-0.01 2.2599-0.02 3.4-0.03l0.02 0.41c3.88-0.06 7.77-0.07 11.67-0.03 0.05-1.19 0.16-2.38 0.26-3.57h2.7c0.16 1.16 0.29 2.33 0.4 3.49 3.84 0.06 7.68 0.07 11.53 0.03 0.11-1.18 0.27-2.35 0.47-3.52h2.62c0.09 1.19 0.19 2.37 0.26 3.56 3.88-0.02 7.75-0.02 11.63 0.01 0.09-1.19 0.24-2.38 0.45-3.57h2.68c0.08 1.17 0.16 2.33 0.24 3.5 3.9 0.06 7.81 0.06 11.71-0.01 0.09-1.17 0.23-2.33 0.41-3.49h2.66c0.1 1.19 0.21 2.38 0.29 3.58 3.87-0.04 7.75-0.04 11.63-0.02 0.09-1.19 0.24-2.38 0.43-3.56h2.68c0.08 1.17 0.17 2.34 0.25 3.51 3.87 0.06 7.74 0.05 11.61-0.05 1.23 0.04 2.45 0.07 3.7 0.11 3.79-0.03 7.59-0.04 11.39 0.01l0.01-0.3c1.18 0.12 2.35 0.24 3.56 0.36 3.84-0.1 7.69-0.12 11.54-0.06 0.05-1.2 0.13-2.39 0.22-3.58h2.72c0.18 1.19 0.32 2.39 0.44 3.59 3.85-0.05 7.72-0.06 11.59-0.03l0.01-0.41c1.14 0.16 2.3 0.33 3.46 0.49 3.83-0.08 7.66-0.09 11.5-0.12l0.27-0.01c-0.06-1.17-0.11-2.34-0.15-3.51h2.72c0.29 0.81 0.88 2.44 1.18 3.26 3.42 0.16 6.85 0.09 10.27-0.24 0.46-1.01 0.95-2.02 1.46-3.02h2.04c0.35 1.07 0.71 2.15 1.08 3.22 3.45 0.2 6.92 0.17 10.38-0.11 0.49-1.05 1.01-2.08 1.56-3.11h2.01c0.35 1.06 0.72 2.12 1.09 3.19 3.55 0.16 7.12 0.2 10.68 0.09 0.32-1.1 0.67-2.19 1.05-3.28h2.47c0.11 1.19 0.24 2.37 0.37 3.56 3.83 0 7.66 0 11.5-0.03h0.3c0.84-0.01 2.5-0.03 3.34-0.04 3.88-0.03 7.77-0.08 11.66-0.08 0.84 0 2.52 0.02 3.36 0.02 3.84 0.04 7.68 0.02 11.54 0.05 0.89 0.02 2.69 0.05 3.58 0.07 3.8 0.02 7.61-0.03 11.42 0.01l3.56 0.24c3.56-0.39 7.14 0.1 10.72-0.24h4.43c3.78-0.02 7.58-0.02 11.37 0.03 0.91-0.01 2.73-0.02 3.64-0.02 3.78-0.03 7.58-0.03 11.37 0.01h3.6c3.76-0.04 7.53-0.03 11.3-0.03 0.87-0.02 2.62-0.06 3.49-0.08 3.64-0.05 7.29 0.01 10.94 0.06l0.63 0.01c0.92 0.01 2.75 0.02 3.66 0.03 3.78-0.03 7.56-0.03 11.35 0.02 0.01 19.16-0.0699 38.32 0.02 57.48-0.47 2.43 1.78 2.5 3.49 2.37 0.13-19.96-0.11-39.92 0.12-59.87 3.81-0.03 7.62-0.03 11.44 0.01 0.02 19.92-0.07 39.84 0.05 59.76 1.1299-0.01 2.28-0.02 3.4399-0.04 0.15-19.91 0.01-39.82 0.07-59.72 3.81-0.04 7.62-0.04 11.43 0.01 0.03 19.16-0.08 38.32 0.04 57.47-0.92 3.39 4.48 3.18 3.48 0.01 0.1-19.16-0.01-38.33 0.05-57.5 3.83-0.04 7.6699-0.03 11.52 0.03 0.0099 29.15-0.0601 58.3 0.0299 87.45-0.2999 1.91 0.9301 3.06 2.77 2.54 0.87-1.39 0.6901-3.08 0.78-4.65-0.08-28.46-0.04-56.91-0.02-85.37 3.8-0.04 7.6-0.03 11.41 0.02 0 18.8 0 37.6-0.01 56.4 0.0499 1.36-0.02 4.15 2.09 3.54 1.6901 0.12 1.37-2.41 1.52-3.53-0.03-18.83-0.05-37.66 0-56.49h0.6899c3.6101 0.16 7.2301-0.19 10.85-0.01-0.0901 19.93-0.0801 39.85 0 59.78 0.85 0.02 2.5499 0.06 3.3999 0.08 0.2201-15.79 0.03-31.59 0.1001-47.38 0.0599-4.06-0.4-8.18 0.49-12.18l0.27-0.2c3.5599-0.12 7.1399 0.23 10.72-0.02-0.17 17.14 0.01 34.29-0.09 51.44-0.01 2.66-0.17 5.35 0.3999 7.97 0.77 0.17 2.3201 0.52 3.1001 0.69 0.33-20.05-0.05-40.11 0.2-60.16 3.8 0.03 7.62 0.03 11.44 0.09 0.03 19.97-0.1699 39.95 0.1101 59.92 1.6399-0.11 3.95 0.01 3.3799-2.43 0.14-19.15-0.0199-38.32 0.0601-57.48 3.76-0.08 7.52-0.1 11.29-0.04 0.02 39.96-0.0601 79.92 0.0399 119.87 1.17-0.02 2.3501-0.06 3.55-0.09 0.02-34.11 0-68.21 0.01-102.32 0.0499-5.82-0.21-11.65 0.23-17.46l0.54-0.01c3.5599 0.38 7.13-0.18 10.72-0.13-0.05 19.96-0.13 39.91 0.04 59.87 0.85 0.01 2.5499 0.02 3.39 0.02 0.2-19.94 0.0099-39.88 0.1-59.82h0.5499c3.64-0.01 7.28-0.07 10.93-0.08-0.12 17.19 0.02 34.38-0.0701 51.57 0.3601 3.1-1.6 9.17 3.51 8.65 0.26-20.07 0.12-40.15 0.0701-60.22 3.84 0.04 7.6899 0.04 11.55-0.03-0.1499 16.85 0 33.71-0.08 50.57-0.01 3.02-0.16 6.07 0.36 9.06 0.77 0.16 2.3201 0.48 3.09 0.64 0.29-20.1 0.14-40.21 0.0801-60.31 1.25 0.02 2.5 0.03 3.75 0.05 1.1 0.13 2.27 0.1 3.4399 0.03 1.5 0.01 2.99 0.02 4.48 0-0.1699 19.51-0.1899 39.05 0.02 58.55-0.58 2.04 4.25 2.21 3.3301 0 0.24-19.51 0.1-39.04 0.0599-58.56 3.88 0.02 7.76 0.06 11.65 0.01-0.02 30 0.02 60-0.02 90 0.8-0.04 2.4-0.13 3.2001-0.18 0.5099-29.92 0.1399-59.89 0.1799-89.83 3.88 0.03 7.77 0.05 11.66-0.04 0.0399 19.52-0.12 39.05 0.0599 58.57-0.47 2.11 3.7201 2.18 3.3101-0.04 0.24-19.51-0.01-39.05 0.11-58.57 3.85 0.05 7.7 0.18 11.57 0.04-0.0299 20-0.0299 40-0.01 60 0.7401-0.03 2.2201-0.08 2.9601-0.11 0.58-1.71 0.45-3.55 0.51-5.33-0.14-18.12 0.0299-36.25-0.0901-54.36 3.89-0.06 7.79-0.05 11.7 0-0.12 19.47-0.15 38.94 0.01 58.4-0.4501 2.16 3.64 2.06 3.3199-0.04 0.1901-19.55 0.02-39.12 0.0701-58.68 3.7999 0.55 7.64 0.47 11.47 0.21 0.0599 19.51-0.11 39.03 0.0699 58.53-0.3999 2.15 3.52 2.03 3.28-0.07 0.16-19.45 0.0701-38.92 0.04-58.38 3.87-0.02 7.75-0.02 11.64 0.03-0.15 39.98-0.05 79.96-0.05 119.94 1.97 0.23 3.88 0.03 3.4301-2.46 0.09-39.28 0.01-78.56 0.0399-117.84 0.2101 0.02 0.41 0.04 0.62 0.06 3.66 0.31 7.3301 0.66 11 0.23 0.02 19.48-0.11 38.97 0.05 58.45-0.5 2.15 3.59 2.09 3.3099 0.01 0.2001-19.55 0.02-39.13 0.0801-58.69 2.7999 0.14 5.6 0.21 8.41 0.21 1.0399 0 2.0699-0.01 3.11-0.03 0.01 19.98-0.0701 39.96 0.0399 59.95 1.26-0.21 3.51 0.57 3.3301-1.51 0.23-19.47 0.12-38.96 0.0399-58.43 3.9 0.07 7.8 0.08 11.72 0.02-0.05 19.48-0.15 38.98 0.0399 58.45-0.46 2.26 3.63 2.07 3.3101 0.02 0.14-19.46 0.12-38.93 0-58.39 3.87-0.04 7.74-0.04 11.62-0.01-0.02 19.45-0.16 38.92 0.0699 58.37-0.4199 2.22 3.67 2.25 3.28 0.01 0.2-19.47 0.12-38.97 0.03-58.45 3.9 0.06 7.8199 0.06 11.74-0.01-0.21 27.49 0.02 54.99-0.11 82.48 0.01 2.47-0.2101 5.01 0.48 7.42 0.75 0.01 2.27 0.03 3.02 0.03 0.02-29.95 0.0699-59.9-0.02-89.85 3.86-0.03 7.72-0.03 11.59-0.01-0.0499 19.46-0.12 38.92 0.03 58.38-0.37 2.12 3.71 2.19 3.33 0 0.12-19.47 0.13-38.95-0.01-58.42 3.91 0.04 7.8301 0.03 11.75-0.05-0.11 19.5-0.13 39 0 58.5-0.26 2.07 3.7301 2.2 3.3301 0.05 0.1899-19.47 0.08-38.96 0.0499-58.44 3.8501-0.04 7.7101-0.04 11.58-0.01-0.0601 16.82 0.02 33.65-0.03 50.48 0.02 2.85-0.24 5.74 0.27 8.56-0.11 1.67 3.6799 1.18 3.1-0.67 0.3199-19.42-0.2-38.86 0.25-58.29 3.76-0.1 7.54-0.13 11.33-0.09-0.01 19.46-0.1799 38.93 0.0701 58.39-0.41 2.26 3.65 2.23 3.27-0.03 0.2-19.43 0.13-38.89 0.0199-58.33 3.89-0.05 7.79-0.05 11.7-0.02-0.12 38.47 0.04 76.95-0.08 115.42 0.1 1.48-0.2001 3.15 0.6299 4.48 0.7101 0.01 2.14 0.01 2.8601 0.02-0.0801-39.96 0.1-79.92-0.0901-119.88 3.88-0.07 7.77-0.08 11.67-0.04 0 19.47-0.12 38.95 0.0599 58.41-0.3099 2.05 3.76 2.18 3.3101 0.03 0.29-19.46-0.15-38.93 0.21-58.39 3.8201-0.08 7.65-0.1 11.49-0.04 0.01 19.45-0.1399 38.91 0.0701 58.36-0.17 1.87 2.12 1.26 3.28 1.58 0.2-19.96-0.16-39.92 0.1799-59.88 3.8201-0.09 7.65-0.12 11.49-0.07-0.03 19.46-0.13 38.93 0.04 58.39-0.3 2.07 3.8099 2.19 3.3 0.03 0.1799-19.53 0.0199-39.07 0.0699-58.6 3.87 0.16 7.74 0.02 11.63 0.07-0.02 19.2-0.03 38.4-0.01 57.6-0.4301 1.98 1.6 3.3 3.26 2.05 0.67-4.35 0.13-8.75 0.14-13.13-0.0601-15.47 0.27-30.94 0.02-46.41 3.83 0.02 7.6699-0.12 11.52 0.02 0.2001 29.46-0.08 58.93 0.13 88.39 0.04 2.78 4.53 1.7 3.4901-0.96 0.1599-29.05 0-58.11 0.08-87.16 3.5699 0.04 7.12-0.52 10.7-0.26l0.3101 0.21c1.15 19.77-0.1901 39.67 0.66 59.46 1.87 0.94 3.5399-0.15 3.2699-2.27 0.12-19.16 0.0601-38.33 0.01-57.49 3.65-0.15 7.3201-0.04 10.99 0.01l0.51 0.01c0.0601 20.04-0.1699 40.08 0.11 60.11 0.79-0.16 2.38-0.47 3.17-0.63 0.8-19.78-0.02-39.64 0.4-59.44 3.78-0.02 7.58-0.02 11.38-0.01 0.0399 19.94-0.12 39.89 0.08 59.83 0.86-0.04 2.5601-0.11 3.42-0.15 0.0699-19.91 0.09-39.83-0.01-59.75 3.7999-0.04 7.61-0.02 11.43-0.06-0.0199 20.09-0.21 40.19 0.1001 60.28 0.76-0.18 2.2999-0.56 3.0599-0.75 0.62-2.6 0.41-5.31 0.4401-7.96-0.1001-17.19 0.0499-34.39-0.0801-51.58 3.8401 0.01 7.6801 0.07 11.53-0.01-0.13 40.01-0.08 80.02-0.03 120.02 1.13 0 2.3101-0.01 3.48-0.02 0.01-39.93 0.13-79.86-0.0499-119.79 3.85-0.09 7.71-0.09 11.59-0.04 0.04 19.87-0.09 39.75 0.0601 59.62 1.01 0.14 2.0399 0.27 3.09 0.41 1.05-19.98 0.05-40.04 0.52-60.05 3.77-0.04 7.5499 0.05 11.34-0.07 0.03 19.94-0.1 39.88 0.0699 59.82h3.4301c0.03-19.83 0.15-39.67-0.0599-59.5 3.58-0.54 7.2-0.49 10.82-0.17l0.35 0.25c0.87 4.3 0.35 8.71 0.4501 13.06 0.09 15.06-0.16 30.12 0.11 45.17-0.4701 1.71 1.7999 1.14 2.74 1.46 0.5-1.12 0.75-2.31 0.73-3.56 0.0599-18.83-0.14-37.66 0.1-56.49 3.76 0.01 7.54 0.02 11.33 0.07 0.02 19.16-0.0699 38.33 0.03 57.49-0.47 2.4 1.79 2.49 3.4601 2.39 0.2-19.98-0.1101-39.95 0.1499-59.92 3.8101-0.02 7.62-0.02 11.45 0.03-0.05 26.79 0.01 53.57-0.03 80.35 0.0699 3.15-0.41 6.41 0.53 9.47 0.98 0.04 1.98 0.05 3 0.03 0.15-29.96-0.11-59.92 0.13-89.87 3.77-0.03 7.5499-0.03 11.35 0.03 0.02 19.17-0.1 38.35 0.04 57.52-0.42 2.42 1.73 2.44 3.46 2.34 0.13-19.98-0.01-39.96 0.0699-59.94l0.63-0.01c3.63-0.03 7.27-0.08 10.92-0.02-0.08 19.92-0.0601 39.85-0.01 59.78 0.86 0.02 2.5699 0.07 3.4301 0.09 0.21-19.93 0.01-39.87 0.1-59.8 3.75-0.01 7.52-0.02 11.29 0.02 0.02 19.95-0.08 39.9 0.05 59.86 1.77 0.19 3.92 0.03 3.5-2.44 0.12-19.13-0.02-38.28 0.05-57.42 3.8099-0.04 7.63-0.04 11.47 0.01 0.01 19.92-0.12 39.84 0.0599 59.76 0.8501-0.02 2.5601-0.05 3.41-0.06 0.14-19.9 0.01-39.8 0.0701-59.69 3.8099-0.06 7.63-0.06 11.47-0.01-0.03 30.14-0.01 60.28-0.01 90.42 0.1899 9.92-0.4401 19.86 0.36 29.76 1.0504-0.18 2.1204-0.36 3.2003-0.54z" fill="#92D7FF"/>
				<path d="m1053.9 63.53c-2.11 0.61-2.04-2.18-2.09-3.54 0.01-18.8 0.01-37.6 0.01-56.4 0.9-0.02 2.7-0.06 3.6-0.08-0.05 18.83-0.03 37.66 0 56.49-0.15 1.12 0.17 3.65-1.52 3.53z" fill="#000004"/>
				<path d="m1821.5 3.57c3.8099-0.05 7.62-0.03 11.45 0.07-0.13 15.02-0.01 30.05-0.0599 45.07-3.79 3.58-7.38 7.37-11.27 10.84-0.2001-18.66 0.03-37.32-0.1201-55.98z" fill="#92D7FF"/>
				<path d="m1457.5 61.96c-0.17-19.46-0.0701-38.93-0.04-58.39l0.01-0.35c1.11 0.06 2.25 0.12 3.4 0.17-0.05 19.53 0.11 39.07-0.0699 58.6 0.5098 2.16-3.6001 2.04-3.3001-0.03z" fill="#000005"/>
				<path d="m1111.8 123.45c-0.1-39.95-0.0199-79.91-0.0399-119.87h3.83c-0.4399 5.81-0.1801 11.64-0.23 17.46-0.01 34.11 0.01 68.21-0.01 102.32-1.2 0.03-2.3801 0.07-3.5501 0.09z" fill="#000004"/>
				<path d="m1567.6 185.06c0.39-7.48 3.1899-16.41 10.71-19.5 4.6-1.61 10.59-0.6 13.45 3.66 3.7 5.49 4.0299 12.4 3.83 18.81-0.22 6.66-1.28 13.73-5.33 19.22-4.05 5.54-13.56 5.71-17.6 0.09-4.72-6.33-5.0201-14.69-5.06-22.28z" fill="#92D7FF"/>
				<path d="m1547.6 3.43c0.88 0 2.64-0.01 3.52-0.01 0.13 17.19-0.02 34.39 0.0801 51.58-0.03 2.65 0.1799 5.36-0.4401 7.96-0.76 0.19-2.2999 0.57-3.0599 0.75-0.31-20.09-0.12-40.19-0.1001-60.28z" fill="#000005"/>
				<path d="m1172.1 61.99c-0.21-19.5-0.1899-39.04-0.02-58.55 0.8501 0 2.5601-0.01 3.41-0.01 0.04 19.52 0.1801 39.05-0.0599 58.56 0.9199 2.21-3.9101 2.04-3.3301 0z" fill="#000005"/>
				<path d="m1337.3 85.97c0.13-27.49-0.1-54.99 0.11-82.48 0.0599-1.16 0.14-2.33 0.25-3.49h2.6899c0.17 1.18 0.3101 2.38 0.4301 3.57 0.09 29.95 0.04 59.9 0.02 89.85-0.75 0-2.27-0.02-3.02-0.03-0.6901-2.41-0.47-4.95-0.48-7.42z" fill="#000005"/>
				<path d="m1562.6 123.43c-0.0499-40-0.1-80.01 0.03-120.02 1.1-0.02 2.23-0.05 3.38-0.08l0.02 0.29c0.1799 39.93 0.0599 79.86 0.0499 119.79-1.1699 0.01-2.3499 0.02-3.4799 0.02z" fill="#000004"/>
				<path d="m1145.3 63.65c-5.11 0.52-3.1499-5.55-3.51-8.65 0.0901-17.19-0.0499-34.38 0.0701-51.57h3.51c0.0499 20.07 0.1899 40.15-0.0701 60.22z" fill="#000005"/>
				<path d="m1160.3 63.67c-0.7699-0.16-2.3199-0.48-3.09-0.64-0.52-2.99-0.37-6.04-0.36-9.06 0.08-16.86-0.0699-33.72 0.08-50.57 1.14-0.02 2.29-0.03 3.4501-0.04 0.06 20.1 0.21 40.21-0.0801 60.31z" fill="#000005"/>
				<path d="m1682.7 63.44c-0.13-19.96-0.03-39.91-0.05-59.86h3.6001c-0.0701 19.14 0.0699 38.29-0.05 57.42 0.4199 2.47-1.7301 2.63-3.5001 2.44z" fill="#000004"/>
				<path d="m1036.8 91.05c-0.09-29.15-0.02-58.3-0.0299-87.45 0.8899-0.01 2.6699-0.03 3.5599-0.03-0.02 28.46-0.0599 56.91 0.02 85.37-0.09 1.57 0.09 3.26-0.78 4.65-1.84 0.52-3.07-0.63-2.77-2.54z" fill="#000004"/>
				<path d="m1622.7 61.09c-0.1-19.16-0.01-38.33-0.03-57.49 0.91-0.01 2.7301-0.03 3.64-0.04-0.26 19.97 0.05 39.94-0.1499 59.92-1.6701 0.1-3.9301 0.01-3.4601-2.39z" fill="#000004"/>
				<path d="m1757.9 3.45c0.88 0.02 2.65 0.06 3.5399 0.08-0.12 20.03 0.14 40.06-0.1399 60.09-0.78-0.14-2.3601-0.44-3.15-0.59-0.4701-2.98-0.3301-6-0.3201-9.01 0.0801-16.85-0.0499-33.71 0.0701-50.57z" fill="#000005"/>
				<path d="m1407.4 161.5c2.97-1.86 6.9399-2.33 10.25-1.08 5.64 2.97 8.98 9.83 6.97 16.07-3.17 2.16-6.49 4.86-10.55 4.69-4.4299 0.05-9.3199-2.59-10.29-7.18-0.8201-4.36-0.1301-9.63 3.6199-12.5z" fill="#92D7FF"/>
				<path d="m1716.4 3.57c-0.9 0-2.7 0.01-3.6 0.02-3.84-0.05-7.66-0.05-11.47 0.01-0.89 0-2.66-0.01-3.54-0.01-3.84-0.05-7.66-0.05-11.47-0.01h-3.6001c-3.7699-0.04-7.5399-0.03-11.29-0.02-0.88-0.02-2.64-0.06-3.52-0.07-3.65-0.06-7.29-0.01-10.92 0.02l-0.63 0.01c-0.89 0.02-2.6799 0.06-3.5699 0.08-3.8-0.06-7.58-0.06-11.35-0.03-0.91 0.01-2.73 0.02-3.63 0.02-3.8301-0.05-7.64-0.05-11.45-0.03-0.9099 0.01-2.73 0.03-3.64 0.04-3.7899-0.05-7.5699-0.06-11.33-0.07-1.04 0.09-3.1 0.27-4.13 0.36l-0.35-0.25c-3.62-0.32-7.24-0.37-10.82 0.17-0.8601-0.08-2.5801-0.24-3.4401-0.32-3.79 0.12-7.5699 0.03-11.34 0.07-0.92 0-2.76 0.01-3.67 0.02-3.88-0.05-7.74-0.05-11.59 0.04l-0.02-0.29c-1.15 0.03-2.28 0.06-3.38 0.08-3.85 0.08-7.6899 0.02-11.53 0.01-0.88 0-2.64 0.01-3.52 0.01-3.8199 0.04-7.63 0.02-11.43 0.06-0.87 0.02-2.62 0.05-3.49 0.07-3.8-0.01-7.6-0.01-11.38 0.01-0.92-0.01-2.76-0.03-3.6801-0.04l-0.51-0.01c-3.6699-0.05-7.34-0.16-10.99-0.01-0.98 0.07-2.95 0.23-3.9399 0.3l-0.3101-0.21c-3.58-0.26-7.13 0.3-10.7 0.26-0.85-0.06-2.55-0.19-3.39-0.25l-0.3101-0.02c-3.85-0.14-7.6899 0-11.52-0.02-1.15-0.04-2.29-0.08-3.41-0.11-3.89-0.05-7.76 0.09-11.63-0.07-1.15-0.05-2.29-0.11-3.4-0.17l-0.01 0.35c-3.84-0.05-7.6699-0.02-11.49 0.07-1.21-0.13-2.36-0.27-3.52-0.4l-0.01 0.34c-3.84-0.06-7.6699-0.04-11.49 0.04-1.22-0.13-2.39-0.26-3.5599-0.4l-0.02 0.35c-3.9-0.04-7.79-0.03-11.67 0.04-0.09-1.21-0.1899-2.41-0.26-3.61h493.34l1.24 0.4c6.12 2.02 7.96 10.16 4.1 15.06-15.94 15.35-31.28 31.31-47.11 46.77-0.7001 0.67-1.38 1.35-2.02 2.03-3.73 3.86-7.55 7.63-11.34 11.43l-1837.4 1837.4c-1.03 0.8601-2.1 1.67-3.21 2.4701-2.14 0.24-4.35 0.52-6.49 0.09-3.1-0.8199-4.98-3.64-6.57-6.1901v-1263.5l0.64-1.61c0.24-29.78 0.07-59.56 0.12-89.34 0.79-17.66 0.26-35.35 0.41-53.02 0.29-41.99 0.01-83.99 0.08-125.99-0.29-22.99 0.21-46-0.27-68.98h-0.98v-293.41l0.49-1.04c2.55-6.4 8.09-11.31 14.95-12.55h45.25c-0.1 1.18-0.21 2.36-0.28 3.54-13.47-0.08-26.95 0-40.43-0.05-5.34-0.17-11.07 1.79-14.05 6.47-2.38 3.17-2.35 7.3-2.31 11.08 0.25 42.34 0.22 84.69 0.26 127.03 0.06 10.99-0.2 21.99 0.31 32.98 0.05 81.63 0.38 163.27 0.41 244.9 0.45 35.69-0.33 71.37-0.13 107.06-0.37 41.35 0.3 82.71-0.57 124.05-0.08 233.96-0.09 467.93-0.08 701.9 0.11 50.02-0.27 100.04-0.16 150.06v348.99c0.04 6.4299-0.15 12.86 0.19 19.29 3.01-2.8101 5.91-5.7201 8.81-8.63 265.17-265.19 530.36-530.36 795.53-795.54 107.18-106.83 214.06-213.97 321.1-320.94 214.49-214.48 428.97-428.97 643.47-643.45 5.21-4.95 9.91-10.45 15.41-15.07 0.7699-0.27 2.2999-0.8 3.0699-1.07 0.1901-0.07 0.58-0.21 0.78-0.27-1.16-2.46 1.39-4.02 2.71-5.63 7.88-7.65 15.43-15.65 23.43-23.17 0.72-0.1 2.1699-0.29 2.89-0.39 0.5499-1.1 0.4399-2.4 0.6-3.59 3.89-3.47 7.48-7.26 11.27-10.84-0.03 1.71-0.03 3.41 0 5.12-278.11 277.91-556.02 556.03-834.09 833.99-106.74 106.92-213.81 213.52-320.57 320.43-212.68 212.67-425.35 425.34-638.02 638.02-12.17 11.93-23.88 24.33-36.33 35.97-0.41 7.25-0.22 14.51-0.26 21.78 0.2 2.24-0.23 4.99 1.58 6.74 1.59 1.86 4.23 1.53 6.43 1.83 0.54-0.5499 1.64-1.6699 2.18-2.22 567.04-567.14 1134.2-1134.2 1701.2-1701.3 49.13-49.02 98.06-98.24 147.3-147.14l0.66-0.63c1.1899-1.14 2.4-2.29 3.62-3.43l-0.03-0.47c14.7-14.35 29.01-29.09 43.69-43.46 2.08-1.96 3.1399-5.11 1.49-7.7-1.01-2.27-3.6801-2.37-5.77-2.61-7.89-0.11-15.81-0.41-23.67 0.26-4.97 5.5-10.09 10.9-15.78 15.66-0.0299-1.69-0.0299-3.38-0.01-5.06 3.9301-3.24 7.5-6.89 10.88-10.71-3.6399-0.14-7.2699-0.15-10.88-0.02-1.21-0.21-2.3899-0.42-3.5499-0.64l-0.03 0.46c-3.8099-0.05-7.61-0.04-11.4-0.08l-0.14-0.01c-0.83-0.01-2.5-0.03-3.33-0.05-3.91-0.05-7.8099 0.04-11.7-0.06-1.17-0.03-2.3101-0.07-3.4401-0.11v0.35c-3.83-0.1-7.64-0.12-11.45-0.07l-0.01-0.38c-1.15 0.06-2.26 0.12-3.37 0.17-3.87 0.16-7.74 0.11-11.59 0.05-1.17-0.01-2.3101-0.01-3.4401 0-3.9 0.05-7.8 0.06-11.68 0.02-0.83 0-2.49-0.01-3.3199-0.01-3.9 0.01-7.79 0.01-11.68 0-0.8799 0-2.6499 0-3.5299 0.01-3.66 0.02-7.3 0.07-10.94 0.09l-0.52 0.01c-0.8899-0.02-2.6599-0.06-3.5399-0.08-3.65-0.04-7.3 0.03-10.93 0.07l-0.53 0.01c-0.9099 0.01-2.72 0.05-3.63 0.06-3.8199-0.05-7.6399-0.04-11.45-0.03-0.88-0.03-2.64-0.08-3.52-0.11-3.64-0.07-7.27 0.03-10.89 0.11l-0.5898 0.01z" fill="#004"/>
				<path d="m1862.4 61.95c-49.24 48.9-98.17 98.12-147.3 147.14-567.06 567.1-1134.2 1134.1-1701.2 1701.3-0.54 0.55-1.64 1.67-2.18 2.22-2.2-0.2999-4.84 0.03-6.43-1.83-1.81-1.75-1.38-4.5-1.58-6.74 0.04-7.27-0.15-14.53 0.26-21.78 12.45-11.64 24.16-24.04 36.33-35.97 212.67-212.68 425.34-425.35 638.02-638.02 106.76-106.91 213.83-213.51 320.57-320.43 278.07-277.96 555.98-556.08 834.09-833.99-0.01 3.21 0.01 6.41 0.11 9.62 1.02-0.06 2.08-0.1 3.14-0.24 0.6599-4.5 0.2-9.08 0.35-13.62 4.14-3.23 7.63-7.18 11.44-10.8-0.26 8.25 0.3101 16.49 0.1901 24.74 0.73-0.1 2.1899-0.3 2.9199-0.4 0.54-1.27 0.4-2.71 0.5-4.07-0.0699-8.17-0.08-16.34-0.0099-24.51 4.1499-3.24 7.6499-7.19 11.5-10.77-0.02-1.72-0.03-3.44 0-5.16-3.88 3.59-7.4801 7.49-11.52 10.9-0.01-8.67-0.0901-17.34 0.0499-26 3.79 0.04 7.5901 0.03 11.4 0.08l0.03-0.46c1.16 0.22 2.34 0.43 3.5499 0.64 3.6101-0.13 7.2401-0.12 10.88 0.02-3.38 3.82-6.95 7.47-10.88 10.71-0.0199 1.68-0.0199 3.37 0.01 5.06 5.6901-4.76 10.81-10.16 15.78-15.66 7.86-0.67 15.78-0.37 23.67-0.26 2.09 0.24 4.76 0.34 5.77 2.61 1.6499 2.59 0.59 5.74-1.49 7.7-14.68 14.37-28.99 29.11-43.69 43.46l0.03 0.47c-1.22 1.14-2.4301 2.29-3.62 3.43l-0.6597 0.63z" fill="#A8DFFF"/>
				<path d="m1025.2 61.07c1 3.17-4.4 3.38-3.48-0.01-0.12-19.15-0.01-38.31-0.04-57.47 0.9 0 2.6801-0.01 3.5701-0.02-0.0601 19.17 0.0499 38.34-0.0501 57.5z" fill="#000004"/>
				<path d="m1485.2 136.03c0.61-5.01 0.26-10.05-0.01-15.07v-0.33c0-2.11-0.22-4.46 1.16-6.22 1.76-2 5.13 0.26 4.76 2.6-0.0699 1.99-0.29 3.97-0.42 5.96 2.8601-3.07 5.52-7.76 10.3-7.66 2.6801-0.21 4.41 2.09 5.89 3.96 3.8199-4.31 12.79-5.74 15.23 0.65 1.8 8.55 2.66 17.31 3.6 26 0.49 2.88-4.96 4.04-5.47 1.08-2.21-8.21-0.64-17.33-4.36-25.12-3.2001-1.18-6.41 2.02-8.72 4-0.4601 7.06 1.45 14.01 1.4299 21.06 0.59 3.31-4.86 4.15-5.5699 1.08-0.41-5.01-0.6901-10.04-1.29-15.04-0.54-4.02 0.35-8.28-1.36-12.09-3.39 2.44-6.29 5.51-8.6901 8.9-0.96 4.67-1.25 9.55-0.49 14.27 0.9401 2.57-2.3899 4.52-4.49 3.32-1.23-1.68-1.6699-3.65-1.77-5.69-0.0899-1.89 0.1202-3.84 0.2701-5.66z" fill="#000004"/>
				<path d="m1716.4 3.57c-0.0599 39.89 0.02 79.77-0.05 119.66-1.08 0.18-2.1499 0.36-3.2 0.54-0.8-9.9-0.17-19.84-0.36-29.76 0-30.14-0.02-60.28 0.01-90.42 0.9-0.01 2.7-0.02 3.6-0.02z" fill="#000004"/>
				<path d="m1803.2 63.52c-0.1-20.04-0.03-40.07-0.04-60.11 1.13-0.01 2.27-0.01 3.4401 0-0.03 19.52 0.11 39.05-0.0601 58.57 0.15 1.77-2.3199 1.14-3.34 1.54z" fill="#000005"/>
				<path d="m1697.8 63.35c-0.1799-19.92-0.0499-39.84-0.0599-59.76 0.88 0 2.65 0.01 3.54 0.01-0.0601 19.89 0.0699 39.79-0.0701 59.69-0.8499 0.01-2.5599 0.04-3.41 0.06z" fill="#000004"/>
				<path d="m1370.8 62.02c0.4 2.15-3.5901 2.02-3.3301-0.05-0.13-19.5-0.11-39 0-58.5 0.05-1.16 0.13-2.31 0.24-3.47h2.7001c0.17 1.19 0.3099 2.38 0.4399 3.58 0.0301 19.48 0.1401 38.97-0.0499 58.44z" fill="#000005"/>
				<path d="m1097.1 63.53c-0.28-19.97-0.0801-39.95-0.1101-59.92v-0.41c1.17 0.14 2.3501 0.28 3.55 0.42-0.08 19.16 0.08 38.33-0.0601 57.48 0.5701 2.44-1.7399 2.32-3.3798 2.43z" fill="#000004"/>
				<path d="m1268.5 200.2c-4.61 1.23-10.6 1.03-13.73-3.1-2.36-4.04-1.34-10.07 2.7-12.69 1.75-1.19 3.67-2.13 5.54-3.15 3.5599 1.18 7.6799 2.49 9.49 6.12 2.14 4.33 1 11.03-4 12.82z" fill="#92D7FF"/>
				<path d="m1247.2 3.47c0.03-0.87 0.1001-2.6 0.13-3.47h2.88c0.13 1.18 0.24 2.37 0.3301 3.56 0.03 19.46 0.12 38.93-0.04 58.38 0.24 2.1-3.6799 2.22-3.28 0.07-0.1799-19.5-0.01-39.02-0.0699-58.53v-0.01h0.0498z" fill="#000005"/>
				<path d="m1006.8 63.34c-0.1201-19.92-0.03-39.84-0.05-59.76h3.56c-0.06 19.9 0.08 39.81-0.07 59.72-1.16 0.02-2.31 0.03-3.44 0.04z" fill="#000004"/>
				<path d="m1382.4 54.05c0.05-16.83-0.03-33.66 0.03-50.48l0.01-0.35c1.1899 0.15 2.35 0.29 3.58 0.43-0.45 19.43 0.0699 38.87-0.25 58.29 0.58 1.85-3.21 2.34-3.1 0.67-0.51-2.82-0.25-5.71-0.27-8.56z" fill="#000005"/>
				<path d="m1638.3 93.41c-0.9401-3.06-0.4601-6.32-0.53-9.47 0.04-26.78-0.02-53.56 0.03-80.35 0.9 0 2.72-0.01 3.63-0.02-0.24 29.95 0.02 59.91-0.13 89.87-1.02 0.02-2.02 0.01-3-0.03z" fill="#000004"/>
				<path d="m1310.6 61.97c0.3199 2.05-3.77 2.24-3.3101-0.02-0.1899-19.47-0.09-38.97-0.0399-58.45 0.08-1.17 0.22-2.34 0.4099-3.5h2.66c0.09 1.19 0.1901 2.38 0.28 3.58 0.1201 19.46 0.1401 38.93 1e-4 58.39z" fill="#000005"/>
				<path d="m1517.6 3.53c0.92 0.01 2.76 0.03 3.6801 0.04-0.42 19.8 0.4 39.66-0.4 59.44-0.79 0.16-2.38 0.47-3.17 0.63-0.2801-20.03-0.0501-40.07-0.1101-60.11z" fill="#000005"/>
				<path d="m1772.9 61.01c-0.13-19.19-0.05-38.39-0.02-57.58 0.88-0.01 2.65-0.01 3.5299-0.01 0.04 19.54 0.1801 39.09-0.0599 58.62 0.1099 2.76-4.2901 1.57-3.45-1.03z" fill="#000005"/>
				<path d="m1417.6 160.42c-3.3101-1.25-7.28-0.78-10.25 1.08-3.75 2.87-4.4401 8.14-3.62 12.5 0.97 4.59 5.86 7.23 10.29 7.18 4.0601 0.17 7.38-2.53 10.55-4.69 2.0101-6.24-1.3299-13.1-6.9699-16.07zm12.71 21.59c-1.98 8.38-6.37 16.98-14.41 20.94-3.88 1.86-7.6599 4.21-11.93 5-2.9401 0.84-5.24-3.72-2.63-5.42 4.6799-2.28 10.04-3.35 14.08-6.85 3.41-2.82 5.41-6.86 7.38-10.73-4.15 1.3-8.4199 3.18-12.85 2.26-5.6-1.14-11.1-5.16-12.39-10.96-1.2999-6-0.27-13.03 4.39-17.39 4.0601-4.23 10.41-5.11 15.99-4.5 5.36 0.8 9.5601 5.02 11.92 9.69 2.6299 5.64 1.6299 12.09 0.4499 17.96z" fill="#000005"/>
				<path d="m1578.4 165.56c-7.52 3.09-10.32 12.02-10.71 19.5 0.0399 7.59 0.34 15.95 5.0599 22.28 4.04 5.62 13.55 5.45 17.6-0.09 4.0499-5.49 5.11-12.56 5.33-19.22 0.2-6.41-0.13-13.32-3.83-18.81-2.86-4.26-8.85-5.27-13.45-3.66zm17.68-2.61c5.61 6.21 7.6899 14.88 7.33 23.09-0.33 8.61-1.0699 17.87-6.1899 25.14-6.77 9.99-23.76 10.42-30.68 0.38-5.8101-8.23-6.48-18.85-6.0699-28.6 0.8999-9.9 5.72-21.12 15.85-24.51 6.7299-2.09 14.88-0.89 19.76 4.5z" fill="#000005"/>
				<path d="m1863.1 18.62c-0.03 1.72-0.02 3.44 0 5.16-3.8501 3.58-7.3501 7.53-11.5 10.77-0.04-1.68-0.03-3.35-0.02-5.03 4.0399-3.41 7.64-7.31 11.52-10.9z" fill="#004"/>
				<path d="m1487.8 3.61c0.84 0.06 2.54 0.19 3.39 0.25-0.08 29.05 0.08 58.11-0.08 87.16 1.0399 2.66-3.4501 3.74-3.4901 0.96-0.21-29.46 0.0701-58.93-0.13-88.39l0.3101 0.02z" fill="#000005"/>
				<path d="m1292.2 63.42c-0.11-19.99-0.0299-39.97-0.0399-59.95-1.04 0.02-2.0701 0.03-3.11 0.03v-0.03c0.9199 0 1.84-0.02 2.7699-0.06 0.3301-1.14 0.7001-2.28 1.1001-3.41h2.4099c0.0801 1.16 0.16 2.32 0.24 3.48 0.0801 19.47 0.1901 38.96-0.0399 58.43 0.1799 2.08-2.0701 1.3-3.3301 1.51z" fill="#000005"/>
				<path d="m1446 3.64c-0.34 19.96 0.02 39.92-0.1799 59.88-1.16-0.32-3.4501 0.29-3.28-1.58-0.21-19.45-0.0601-38.91-0.0701-58.36l0.01-0.34c1.16 0.13 2.31 0.27 3.52 0.4z" fill="#000005"/>
				<path d="m1836.5 45.16c3.74-4.02 7.65-7.88 11.63-11.67-0.0599 1.77-0.12 3.54-0.16 5.3-3.8099 3.62-7.2999 7.57-11.44 10.8-0.0301-1.48-0.0401-2.95-0.0301-4.43z" fill="#004"/>
				<path d="m1126.9 63.31c-0.17-19.96-0.0901-39.91-0.04-59.87 0.88 0.02 2.65 0.05 3.53 0.07-0.0901 19.94 0.1 39.88-0.1 59.82-0.84 0-2.54-0.01-3.39-0.02z" fill="#000004"/>
				<path d="m1580.8 63.61c-1.05-0.14-2.08-0.27-3.09-0.41-0.15-19.87-0.02-39.75-0.0601-59.62 0.91-0.01 2.75-0.02 3.67-0.02-0.4698 20.01 0.5302 40.07-0.5199 60.05z" fill="#000004"/>
				<path d="m1412.4 3.57c-3.91-0.03-7.8101-0.03-11.7 0.02-0.0899-1.2-0.1899-2.39-0.2699-3.59h12.33c-0.1801 1.18-0.3 2.37-0.36 3.57z" fill="#004"/>
				<path d="m1386 3.65c-1.23-0.14-2.39-0.28-3.58-0.43l-0.01 0.35c-3.87-0.03-7.73-0.03-11.58 0.01-0.13-1.2-0.2699-2.39-0.4399-3.58h27.37c-0.21 1.18-0.36 2.37-0.4301 3.56-3.79-0.04-7.57-0.01-11.33 0.09z" fill="#004"/>
				<path d="m1367.7 0c-0.11 1.16-0.1899 2.31-0.24 3.47-3.9199 0.08-7.84 0.09-11.75 0.05-0.09-1.17-0.1799-2.35-0.26-3.52h12.25z" fill="#004"/>
				<path d="m1352.7 0c-0.1899 1.18-0.3199 2.37-0.39 3.56-3.87-0.02-7.73-0.02-11.59 0.01-0.12-1.19-0.26-2.39-0.4301-3.57h12.41z" fill="#004"/>
				<path d="m1325.6 3.5c-0.09-1.17-0.1801-2.33-0.25-3.5h12.24c-0.11 1.16-0.1901 2.33-0.25 3.49-3.92 0.07-7.84 0.07-11.74 0.01z" fill="#004"/>
				<path d="m1322.7 0c-0.21 1.18-0.36 2.37-0.45 3.57-3.88-0.03-7.75-0.03-11.62 0.01-0.09-1.2-0.1901-2.39-0.28-3.58h12.35z" fill="#004"/>
				<path d="m1307.7 0c-0.1899 1.16-0.33 2.33-0.4099 3.5-3.92 0.06-7.8201 0.05-11.72-0.02-0.08-1.16-0.1599-2.32-0.24-3.48h12.37z" fill="#004"/>
				<path d="m1277.9 0c-0.35 1.1-0.6801 2.21-1 3.31-3.5601-0.16-7.12-0.01-10.67-0.16-0.5399-1.06-1.09-2.11-1.65-3.15h13.32z" fill="#004"/>
				<path d="m1250.5 3.56c-0.0901-1.19-0.2001-2.38-0.3301-3.56h12.4c-0.1699 1.19-0.34 2.39-0.4299 3.59-3.89-0.05-7.77-0.05-11.64-0.03z" fill="#004"/>
				<path d="m1040.4 3.57c-0.89 0-2.67 0.02-3.5599 0.03-3.8501-0.06-7.6901-0.07-11.52-0.03-0.89 0.01-2.67 0.02-3.5701 0.02-3.81-0.05-7.62-0.05-11.43-0.01h-3.56c-3.82-0.04-7.63-0.04-11.44-0.01-0.91 0-2.72 0.02-3.63 0.02-3.79-0.05-7.5699-0.05-11.35-0.02-0.91-0.01-2.74-0.02-3.66-0.03l-0.63-0.01c-3.65-0.05-7.3-0.11-10.94-0.06-0.87 0.02-2.62 0.06-3.49 0.08-3.77 0-7.54-0.01-11.3 0.03h-3.6c-3.79-0.04-7.59-0.04-11.37-0.01-0.91 0-2.73 0.01-3.64 0.02-3.79-0.05-7.59-0.05-11.37-0.03h-4.43c-3.58 0.34-7.16-0.15-10.72 0.24l-3.56-0.24c-3.81-0.04-7.62 0.01-11.42-0.01-0.89-0.02-2.69-0.05-3.58-0.07-3.86-0.03-7.7-0.01-11.54-0.05-0.84 0-2.52-0.02-3.36-0.02-3.89 0-7.78 0.05-11.66 0.08-0.84 0.01-2.5 0.03-3.34 0.04h-0.3c-3.84 0.03-7.67 0.03-11.5 0.03-0.13-1.19-0.26-2.37-0.37-3.56h388.09c-0.14 1.2-0.28 2.39-0.35 3.59-3.91-0.05-7.8101-0.06-11.7 0l-0.0099-0.32c-1.13 0.04-2.26 0.09-3.3601 0.12-3.87 0.14-7.72 0.01-11.57-0.04-1.17-0.01-2.34 0.02-3.48 0.04-3.89 0.09-7.78 0.07-11.66 0.04-0.84 0-2.52 0.01-3.36 0.01-3.89 0.05-7.77 0.01-11.65-0.01-0.85 0-2.5599 0.01-3.41 0.01-1.49 0.02-2.98 0.01-4.48 0-1.1699 0.07-2.34 0.1-3.4399-0.03-1.25-0.02-2.5-0.03-3.75-0.05-1.16 0.01-2.3101 0.02-3.4501 0.04-3.86 0.07-7.71 0.07-11.55 0.03h-3.51c-3.65 0.01-7.29 0.07-10.93 0.08h-0.5499c-0.88-0.02-2.65-0.05-3.53-0.07-3.59-0.05-7.16 0.51-10.72 0.13l-0.54 0.01h-3.83c-3.77-0.06-7.53-0.04-11.29 0.04-1.2-0.14-2.38-0.28-3.55-0.42v0.41c-3.8199-0.06-7.6399-0.06-11.44-0.09-0.91 0.01-2.71 0.04-3.61 0.06-3.5801 0.25-7.16-0.1-10.72 0.02l-0.27 0.2c-1-0.08-2.99-0.22-3.99-0.3-3.62-0.18-7.24 0.17-10.85 0.01h-0.6899c-0.9 0.02-2.7 0.06-3.6 0.08-3.8102-0.05-7.6102-0.06-11.41-0.02z" fill="#004"/>
				<path d="m841.01 3.28c-3.56 0.11-7.13 0.07-10.68-0.09-0.37-1.07-0.74-2.13-1.09-3.19h12.82c-0.38 1.09-0.73 2.18-1.05 3.28z" fill="#004"/>
				<path d="m827.23 0c-0.55 1.03-1.07 2.06-1.56 3.11-3.46 0.28-6.93 0.31-10.38 0.11-0.37-1.07-0.73-2.15-1.08-3.22h13.02z" fill="#004"/>
				<path d="m812.17 0c-0.51 1-1 2.01-1.46 3.02-3.42 0.33-6.85 0.4-10.27 0.24-0.3-0.82-0.89-2.45-1.18-3.26h12.91z" fill="#004"/>
				<path d="m781.45 3.56c-3.87-0.03-7.74-0.02-11.59 0.03-0.12-1.2-0.26-2.4-0.44-3.59h27.12c0.04 1.17 0.09 2.34 0.15 3.51l-0.27 0.01c-3.84 0.03-7.67 0.04-11.5 0.12-1.16-0.16-2.32-0.33-3.46-0.49l-0.01 0.41z" fill="#004"/>
				<path d="m736.28 3.46c-3.8701 0.1-7.7401 0.11-11.61 0.05-0.08-1.17-0.17-2.34-0.25-3.51h42.28c-0.09 1.19-0.17 2.38-0.22 3.58-3.85-0.06-7.7-0.04-11.54 0.06-1.21-0.12-2.38-0.24-3.56-0.36l-0.01 0.3c-3.8-0.05-7.6-0.04-11.39-0.01-1.25-0.04-2.47-0.07-3.7-0.11z" fill="#004"/>
				<path d="m709.68 3.58c-0.08-1.2-0.19-2.39-0.29-3.58h12.35c-0.19 1.18-0.34 2.37-0.43 3.56-3.88-0.02-7.76-0.02-11.63 0.02z" fill="#004"/>
				<path d="m706.73 0c-0.18 1.16-0.32 2.32-0.41 3.49-3.9 0.07-7.81 0.07-11.71 0.01-0.08-1.17-0.16-2.33-0.24-3.5h12.36z" fill="#004"/>
				<path d="m679.61 3.56c-0.07-1.19-0.17-2.37-0.26-3.56h12.34c-0.21 1.19-0.36 2.38-0.45 3.57-3.88-0.03-7.75-0.03-11.63-0.01z" fill="#004"/>
				<path d="m676.73 0c-0.2 1.17-0.36 2.34-0.47 3.52-3.85 0.04-7.69 0.03-11.53-0.03-0.11-1.16-0.24-2.33-0.4-3.49h12.4z" fill="#004"/>
				<path d="m646.28 3.22l-0.02 0.39c-3.88-0.07-7.75-0.08-11.63-0.04-0.08-1.19-0.17-2.38-0.26-3.57h27.26c-0.1 1.19-0.21 2.38-0.26 3.57-3.9-0.04-7.79-0.03-11.67 0.03l-0.02-0.41c-1.14 0.01-2.27 0.02-3.4 0.03z" fill="#004"/>
				<path d="m949.37 470.46c-165.26 165.37-330.75 330.5-496.02 495.86-24.91 24.86-49.71 49.84-74.7 74.62-0.91-0.8099-1.81-1.61-2.71-2.3899 99.89-99.96 199.84-199.85 299.75-299.78 43.19-42.83 86.08-85.96 129.12-128.94 78.31-78.24 156.5-156.6 234.87-234.78 0.3999-0.42 1.2-1.27 1.6-1.7 2.12-3.36 0.64-7.54-2.8101-9.26-0.9099-0.05-2.72-0.15-3.63-0.2-221.16 0.08-442.29 0.03-663.44 0-0.93-0.01-2.77-0.03-3.7-0.04-1.21 1.27-2.4 2.57-3.56 3.88 0.03 0.86 0.1 2.57 0.13 3.43 0.06 221.26 0.09 442.53-0.01 663.79-0.87 0-2.59-0.01-3.45-0.01-0.08-221.21-0.08-442.43 0-663.64-0.02-0.84-0.05-2.51-0.06-3.35 1-4.28 4.69-7.78 9.26-7.5 222.34 0.02 444.69-0.03 667.04 0.03 4.98-0.09 9.1 4.71 8.73 9.59-0.03 2.13-1.15 4.01-2.04 5.88-0.91 0.88-1.8099 1.77-2.6899 2.67-30.4 30.77-61.15 61.2-91.68 91.84z" fill="#004"/>
				<path d="m365.28 1044.6c-2.51-1.21-3.63-3.85-4.54-6.3h0.01c1.16 0.01 2.32 0.04 3.49 0.0801 0.08 0.1899 0.16 0.37 0.26 0.5399 1.49 2.76 4.66 3.5701 7.67 3.4401 0.86 0.78 1.71 1.58 2.57 2.4l0.13 0.12c-3.11 0.8499-6.69 1.5899-9.59-0.2801z" fill="#004"/>
				<path d="m525.91 3.48c-3.78-0.02-7.55-0.09-11.32-0.15-1.16 0-2.3 0.02-3.44 0.04-3.89 0.12-7.77 0.1-11.65 0.07-1.16-0.01-2.32 0-3.47 0-3.87 0.03-7.74 0-11.6-0.02h-3.5c-3.86 0.05-7.71 0.1-11.55-0.03-1.15-0.04-2.29-0.08-3.42-0.13l-0.01 0.37c-3.85-0.09-7.69-0.1-11.54-0.06-0.9 0.01-2.7 0.01-3.6 0.02-3.8101-0.05-7.6101-0.04-11.41-0.03-0.88-0.03-2.63-0.07-3.51-0.09-3.64-0.05-7.27 0.01-10.91 0.06l-0.65 0.01c-0.9 0.01-2.69 0.04-3.58 0.05-3.81-0.05-7.62-0.05-11.42-0.01h-3.56c-3.82-0.04-7.63-0.04-11.44-0.01-0.91 0-2.73 0.02-3.64 0.02-3.78-0.05-7.56-0.05-11.34-0.03-0.91 0-2.74 0.02-3.65 0.03-3.79-0.05-7.58-0.05-11.37-0.01-0.88 0.01-2.66 0.01-3.55 0.02-3.79-0.06-7.58-0.06-11.37-0.03-0.92 0.01-2.76 0.02-3.68 0.02-3.79-0.05-7.59-0.05-11.38-0.02-0.91 0-2.72 0.02-3.63 0.02-3.79-0.05-7.59-0.05-11.38-0.02-0.92-0.01-2.77-0.02-3.69-0.03l-0.62-0.02c-3.63-0.06-7.27-0.11-10.89-0.05-0.87 0.02-2.62 0.06-3.49 0.09-3.8-0.01-7.59-0.01-11.39 0.02-0.92-0.01-2.76-0.03-3.68-0.04l-0.58-0.01c-3.63-0.05-7.27-0.2-10.91-0.04-0.98 0.09-2.95 0.26-3.94 0.35l-0.3-0.22c-3.59-0.31-7.19-0.23-10.78-0.15-0.82 0.02-2.48 0.05-3.31 0.07h-0.32c-3.83 0.02-7.67 0.02-11.51 0.04-1.14-0.04-2.28-0.07-3.42-0.09-3.81-0.06-7.62-0.07-11.43-0.02-0.87 0.02-2.61 0.06-3.48 0.09-3.81 0-7.61-0.01-11.41-0.02-0.9-0.02-2.68-0.04-3.57-0.05-3.87-0.02-7.73-0.07-11.58-0.1-1.16 0-2.32 0.02-3.47 0.04-3.91 0.09-7.82 0.01-11.72-0.02-1.13-0.01-2.25 0-3.36 0.01-3.86 0.06-7.71 0.02-11.57-0.02-1.15-0.01-2.31-0.01-3.46 0-3.88 0.06-7.76 0.09-11.64 0.01-1.13-0.03-2.26-0.06-3.38-0.09l-0.01 0.26c-3.87-0.04-7.73-0.04-11.6 0-0.1-1.2-0.25-2.39-0.44-3.58h493.32c-0.19 1.16-0.34 2.32-0.44 3.49-3.86 0.08-7.71 0.07-11.56-0.04-1.17-0.11-2.34-0.21-3.5-0.32l-0.03 0.48c-3.86-0.07-7.72-0.08-11.58-0.04l-0.02-0.33c-1.14 0.05-2.28 0.1-3.4 0.14-3.87 0.14-7.73 0.01-11.59-0.04-1.15 0-2.3 0.02-3.4301 0.06-3.87 0.14-7.74 0.06-11.61 0.02-1.15-0.01-2.29-0.01-3.43-0.01-3.89 0.03-7.79 0.05-11.68 0.03-0.82 0-2.47 0-3.3 0.01-3.9 0.04-7.8-0.12-11.69 0.05-0.9 0.08-2.71 0.23-3.61 0.3-2.6201-0.21-5.25-0.34-7.88-0.34-0.9901 0.01-1.98 0.01-2.97 0.04l-0.54 0.01c-0.89-0.01-2.66-0.02-3.54-0.03z" fill="#004"/>
				<path d="m135.68 0c-0.08 1.16-0.16 2.31-0.23 3.47-3.92 0.08-7.83 0.1-11.75 0.05-0.08-1.17-0.16-2.35-0.26-3.52h12.24z" fill="#004"/>
				<path d="m108.76 3.58c-0.1-1.2-0.25-2.39-0.43-3.58h12.39c-0.16 1.18-0.29 2.37-0.37 3.57-3.86-0.03-7.73-0.03-11.59 0.01z" fill="#004"/>
				<path d="m105.64 0c-0.09 1.17-0.18 2.33-0.25 3.5-3.92 0.06-7.83 0.06-11.74 0-0.08-1.17-0.16-2.33-0.26-3.5h12.25z" fill="#004"/>
				<path d="m78.94 3.64c-1.18-0.13-2.35-0.26-3.53-0.4l-0.01 0.33c-3.88-0.04-7.76-0.03-11.64 0.03-0.09-1.21-0.22-2.41-0.4-3.6h27.37c-0.19 1.18-0.35 2.37-0.46 3.56-3.78-0.04-7.55-0.01-11.33 0.08z" fill="#004"/>
			<g fill="none" stroke-width=".0938">
				<path d="m1232.6 0h1.74c0.83 1.04 1.59 2.17 2.5601 3.11 3.39 0.19 6.8099 0.21 10.22 0.36h0.0499c0.03-0.87 0.1001-2.6 0.13-3.47h2.88c0.13 1.18 0.24 2.37 0.3301 3.56 0.03 19.46 0.12 38.93-0.04 58.38 0.24 2.1-3.6799 2.22-3.28 0.07-0.1799-19.5-0.01-39.02-0.0699-58.53-3.83 0.26-7.67 0.34-11.47-0.21-0.05 19.56 0.12 39.13-0.0701 58.68 0.3201 2.1-3.77 2.2-3.3199 0.04-0.16-19.46-0.13-38.93-0.01-58.4 0.0698-1.2 0.2098-2.39 0.3498-3.59z" stroke="#000005"/>
				<path d="m1262.6 0h1.97c0.5601 1.04 1.1101 2.09 1.65 3.15 3.55 0.15 7.11 0 10.67 0.16 0.3199-1.1 0.65-2.21 1-3.31h1.75c0.54 1.02 1.08 2.06 1.62 3.1 2.59 0.26 5.1899 0.38 7.8 0.37 0.9199 0 1.84-0.02 2.7699-0.06 0.3301-1.14 0.7001-2.28 1.1001-3.41h2.4099c0.0801 1.16 0.16 2.32 0.24 3.48 0.0801 19.47 0.1901 38.96-0.0399 58.43 0.1799 2.08-2.0701 1.3-3.3301 1.51-0.11-19.99-0.0299-39.97-0.0399-59.95-1.04 0.02-2.0701 0.03-3.11 0.03-2.8101 0-5.6101-0.07-8.41-0.21-0.0601 19.56 0.12 39.14-0.0801 58.69 0.28 2.08-3.8099 2.14-3.3099-0.01-0.16-19.48-0.03-38.97-0.05-58.45-3.6699 0.43-7.34 0.08-11-0.23-0.21-0.02-0.4099-0.04-0.62-0.06-0.0299 39.28 0.05 78.56-0.0399 117.84 0.45 2.49-1.4601 2.69-3.4301 2.46 0-39.98-0.1-79.96 0.05-119.94 0.09-1.2 0.2601-2.4 0.43-3.59z" stroke="#000005"/>
				<path d="m1307.7 0h2.66c0.09 1.19 0.1901 2.38 0.28 3.58 0.12 19.46 0.14 38.93 0 58.39 0.3199 2.05-3.77 2.24-3.3101-0.02-0.1899-19.47-0.09-38.97-0.0399-58.45 0.08-1.17 0.22-2.34 0.41-3.5z" stroke="#000005"/>
				<path d="m1322.7 0h2.6801c0.0699 1.17 0.16 2.33 0.25 3.5 0.09 19.48 0.1699 38.98-0.03 58.45 0.39 2.24-3.7 2.21-3.28-0.01-0.23-19.45-0.09-38.92-0.0699-58.37 0.0898-1.2 0.2398-2.39 0.4498-3.57z" stroke="#000005"/>
				<path d="m1337.6 0h2.6899c0.17 1.18 0.3101 2.38 0.4301 3.57 0.09 29.95 0.04 59.9 0.02 89.85-0.75 0-2.27-0.02-3.02-0.03-0.6901-2.41-0.47-4.95-0.48-7.42 0.13-27.49-0.1-54.99 0.11-82.48 0.06-1.16 0.14-2.33 0.25-3.49z" stroke="#000005"/>
				<path d="m1352.7 0h2.7c0.0801 1.17 0.17 2.35 0.26 3.52 0.14 19.47 0.13 38.95 0.01 58.42 0.38 2.19-3.7 2.12-3.33 0-0.15-19.46-0.08-38.92-0.03-58.38 0.07-1.19 0.2-2.38 0.39-3.56z" stroke="#000005"/>
				<path d="m1367.7 0h2.7001c0.17 1.19 0.3099 2.38 0.4399 3.58 0.03 19.48 0.14 38.97-0.0499 58.44 0.4 2.15-3.5901 2.02-3.3301-0.05-0.13-19.5-0.11-39 0-58.5 0.0501-1.16 0.1301-2.31 0.24-3.47z" stroke="#000005"/>
				<path d="m1397.8 0h2.66c0.08 1.2 0.1799 2.39 0.2699 3.59 0.1101 19.44 0.1801 38.9-0.0199 58.33 0.38 2.26-3.6801 2.29-3.27 0.03-0.25-19.46-0.0801-38.93-0.0701-58.39 0.0701-1.19 0.2201-2.38 0.4301-3.56z" stroke="#000005"/>
				<path d="m1412.8 0h2.7c0.0701 1.2 0.17 2.4 0.26 3.61 0.1901 39.96 0.01 79.92 0.0901 119.88-0.7201-0.01-2.15-0.01-2.8601-0.02-0.83-1.33-0.5299-3-0.6299-4.48 0.12-38.47-0.04-76.95 0.08-115.42 0.0599-1.2 0.1798-2.39 0.3599-3.57z" stroke="#000005"/>
				<path d="m1097 3.61v-0.41c1.17 0.14 2.3501 0.28 3.55 0.42-0.08 19.16 0.08 38.33-0.0601 57.48 0.5701 2.44-1.74 2.32-3.3799 2.43-0.28-19.97-0.08-39.95-0.11-59.92z" stroke="#000004"/>
				<path d="m1157 3.4c1.14-0.02 2.29-0.03 3.4501-0.04 0.0599 20.1 0.21 40.21-0.0801 60.31-0.7699-0.16-2.3199-0.48-3.09-0.64-0.52-2.99-0.37-6.04-0.36-9.06 0.08-16.86-0.07-33.72 0.08-50.57z" stroke="#000005"/>
				<path d="m1202.2 3.39c1.14-0.02 2.3099-0.05 3.48-0.04-0.12 19.52 0.13 39.06-0.11 58.57 0.41 2.22-3.78 2.15-3.3101 0.04-0.1799-19.52-0.02-39.05-0.0599-58.57z" stroke="#000005"/>
				<path d="m1217.2 3.39c1.1001-0.03 2.2301-0.08 3.3601-0.12l0.0099 0.32c0.12 18.11-0.0499 36.24 0.0901 54.36-0.0601 1.78 0.0699 3.62-0.51 5.33-0.74 0.03-2.22 0.08-2.9601 0.11-0.02-20-0.02-40 0.01-60z" stroke="#000005"/>
				<path d="m1382.4 3.57l0.01-0.35c1.1899 0.15 2.35 0.29 3.58 0.43-0.45 19.43 0.0699 38.87-0.25 58.29 0.58 1.85-3.21 2.34-3.1 0.67-0.51-2.82-0.25-5.71-0.27-8.56 0.0501-16.83-0.03-33.66 0.03-50.48z" stroke="#000005"/>
				<path d="m1427.4 3.57l0.02-0.35c1.1699 0.14 2.34 0.27 3.5599 0.4-0.36 19.46 0.0801 38.93-0.21 58.39 0.45 2.15-3.62 2.02-3.3101-0.03-0.1798-19.46-0.0598-38.94-0.0598-58.41z" stroke="#000005"/>
				<path d="m1442.4 3.58l0.01-0.34c1.16 0.13 2.3101 0.27 3.52 0.4-0.34 19.96 0.02 39.92-0.1799 59.88-1.16-0.32-3.4501 0.29-3.28-1.58-0.21-19.45-0.0601-38.91-0.0701-58.36z" stroke="#000005"/>
				<path d="m1457.5 3.57l0.01-0.35c1.11 0.06 2.25 0.12 3.4 0.17-0.05 19.53 0.11 39.07-0.0699 58.6 0.5099 2.16-3.6001 2.04-3.3-0.03-0.1701-19.46-0.0702-38.93-0.0401-58.39z" stroke="#000005"/>
				<path d="m1562.6 3.41c1.1-0.02 2.23-0.05 3.38-0.08l0.02 0.29c0.1799 39.93 0.0599 79.86 0.0499 119.79-1.1699 0.01-2.35 0.02-3.48 0.02-0.0499-40-0.0999-80.01 0.0301-120.02z" stroke="#000004"/>
				<path d="m1818.2 3.36c1.11-0.05 2.22-0.11 3.37-0.17l0.01 0.38c0.15 18.66-0.0801 37.32 0.12 55.98-0.16 1.19-0.05 2.49-0.6 3.59-0.7201 0.1-2.17 0.29-2.89 0.39-0.02-20.06 0-40.12-0.01-60.17z" stroke="#000005"/>
				<path d="m1833 3.64v-0.35c1.13 0.04 2.27 0.08 3.4401 0.11 0.1499 13.92 0.01 27.84 0.0699 41.76-0.01 1.48 0 2.95 0.03 4.43-0.15 4.54 0.3099 9.12-0.35 13.62-1.0601 0.14-2.12 0.18-3.14 0.24-0.1-3.21-0.12-6.41-0.11-9.62-0.03-1.71-0.03-3.41 0-5.12 0.05-15.02-0.07-30.05 0.06-45.07z" stroke="#000004"/>
				<path d="m991.66 3.59c0.91 0 2.72-0.02 3.63-0.02-0.23 19.95 0.01 39.91-0.12 59.87-1.71 0.13-3.96 0.06-3.49-2.37-0.09-19.16-0.01-38.32-0.02-57.48z" stroke="#000004"/>
				<path d="m1006.7 3.58h3.56c-0.06 19.9 0.08 39.81-0.07 59.72-1.16 0.02-2.31 0.03-3.4399 0.04-0.1201-19.92-0.0301-39.84-0.0501-59.76z" stroke="#000004"/>
				<path d="m1021.7 3.59c0.9 0 2.6801-0.01 3.5701-0.02-0.0601 19.17 0.0499 38.34-0.05 57.5 1 3.17-4.4 3.38-3.48-0.01-0.1201-19.15-0.0101-38.31-0.0401-57.47z" stroke="#000004"/>
				<path d="m1036.8 3.6c0.8899-0.01 2.6699-0.03 3.5599-0.03-0.02 28.46-0.0599 56.91 0.02 85.37-0.09 1.57 0.09 3.26-0.78 4.65-1.84 0.52-3.0699-0.63-2.77-2.54-0.09-29.15-0.0201-58.3-0.0299-87.45z" stroke="#000004"/>
				<path d="m1051.8 3.59c0.9-0.02 2.7-0.06 3.6-0.08-0.05 18.83-0.03 37.66 0 56.49-0.15 1.12 0.17 3.65-1.52 3.53-2.11 0.61-2.04-2.18-2.09-3.54 0.01-18.8 0.01-37.6 0.01-56.4z" stroke="#000004"/>
				<path d="m1066.9 3.5c1 0.08 2.99 0.22 3.99 0.3-0.89 4-0.4301 8.12-0.49 12.18-0.0701 15.79 0.12 31.59-0.1001 47.38-0.85-0.02-2.5499-0.06-3.3999-0.08-0.08-19.93-0.09-39.85 0-59.78z" stroke="#000004"/>
				<path d="m1081.9 3.58c0.9-0.02 2.7-0.05 3.61-0.06-0.25 20.05 0.13 40.11-0.2 60.16-0.78-0.17-2.3301-0.52-3.1001-0.69-0.5699-2.62-0.4099-5.31-0.3999-7.97 0.1-17.15-0.08-34.3 0.09-51.44z" stroke="#000004"/>
				<path d="m1111.8 3.58h3.83c-0.4399 5.81-0.1801 11.64-0.23 17.46-0.01 34.11 0.01 68.21-0.01 102.32-1.2 0.03-2.38 0.07-3.55 0.09-0.1-39.95-0.0199-79.91-0.04-119.87z" stroke="#000004"/>
				<path d="m1126.9 3.44c0.88 0.02 2.65 0.05 3.53 0.07-0.0901 19.94 0.1 39.88-0.1 59.82-0.8401 0-2.54-0.01-3.39-0.02-0.17-19.96-0.09-39.91-0.04-59.87z" stroke="#000004"/>
				<path d="m1141.9 3.43h3.51c0.0499 20.07 0.1899 40.15-0.0701 60.22-5.11 0.52-3.1499-5.55-3.51-8.65 0.0901-17.19-0.0499-34.38 0.0701-51.57z" stroke="#000005"/>
				<path d="m1172.1 3.44c0.8501 0 2.5601-0.01 3.41-0.01 0.04 19.52 0.1801 39.05-0.0599 58.56 0.9199 2.21-3.91 2.04-3.3301 0-0.2099-19.5-0.1899-39.04-0.02-58.55z" stroke="#000005"/>
				<path d="m1187.1 3.44c0.84 0 2.52-0.01 3.36-0.01-0.04 29.94 0.33 59.91-0.1799 89.83-0.8 0.05-2.4 0.14-3.2001 0.18 0.04-30 0-60 0.02-90z" stroke="#000005"/>
				<path d="m1472.5 3.46c1.12 0.03 2.26 0.07 3.41 0.11 0.25 15.47-0.0801 30.94-0.02 46.41-0.01 4.38 0.53 8.78-0.14 13.13-1.66 1.25-3.6901-0.07-3.26-2.05-0.02-19.2-0.01-38.4 0.01-57.6z" stroke="#000005"/>
				<path d="m1487.4 3.59l0.3101 0.02c0.84 0.06 2.54 0.19 3.39 0.25-0.08 29.05 0.08 58.11-0.08 87.16 1.0399 2.66-3.4501 3.74-3.4901 0.96-0.2099-29.46 0.0701-58.93-0.13-88.39z" stroke="#000005"/>
				<path d="m1502.2 3.81c0.99-0.07 2.96-0.23 3.9399-0.3 0.05 19.16 0.11 38.33-0.01 57.49 0.27 2.12-1.3999 3.21-3.2699 2.27-0.85-19.79 0.49-39.69-0.66-59.46z" stroke="#000005"/>
				<path d="m1517.6 3.53c0.92 0.01 2.76 0.03 3.6801 0.04-0.42 19.8 0.4 39.66-0.4 59.44-0.79 0.16-2.38 0.47-3.17 0.63-0.2801-20.03-0.0501-40.07-0.1101-60.11z" stroke="#000005"/>
				<path d="m1532.6 3.56c0.87-0.02 2.62-0.05 3.49-0.07 0.1 19.92 0.08 39.84 0.01 59.75-0.86 0.04-2.5601 0.11-3.42 0.15-0.2-19.94-0.0401-39.89-0.08-59.83z" stroke="#000004"/>
				<path d="m1547.6 3.43c0.88 0 2.64-0.01 3.52-0.01 0.13 17.19-0.02 34.39 0.0801 51.58-0.03 2.65 0.1799 5.36-0.4401 7.96-0.76 0.19-2.2999 0.57-3.0599 0.75-0.31-20.09-0.12-40.19-0.1001-60.28z" stroke="#000005"/>
				<path d="m1577.6 3.58c0.91-0.01 2.75-0.02 3.67-0.02-0.47 20.01 0.53 40.07-0.52 60.05-1.05-0.14-2.08-0.27-3.09-0.41-0.15-19.87-0.02-39.75-0.06-59.62z" stroke="#000004"/>
				<path d="m1592.6 3.49c0.86 0.08 2.58 0.24 3.4401 0.32 0.21 19.83 0.09 39.67 0.0599 59.5h-3.4301c-0.1699-19.94-0.0399-39.88-0.0699-59.82z" stroke="#000004"/>
				<path d="m1607.2 3.89c1.03-0.09 3.09-0.27 4.13-0.36-0.24 18.83-0.04 37.66-0.1 56.49 0.02 1.25-0.23 2.44-0.73 3.56-0.9401-0.32-3.2101 0.25-2.74-1.46-0.27-15.05-0.02-30.11-0.11-45.17-0.1-4.35 0.42-8.76-0.45-13.06z" stroke="#000004"/>
				<path d="m1622.7 3.6c0.91-0.01 2.7301-0.03 3.64-0.04-0.26 19.97 0.05 39.94-0.1499 59.92-1.67 0.1-3.9301 0.01-3.4601-2.39-0.0999-19.16-0.0099-38.33-0.03-57.49z" stroke="#000004"/>
				<path d="m1637.8 3.59c0.9 0 2.72-0.01 3.63-0.02-0.24 29.95 0.02 59.91-0.13 89.87-1.02 0.02-2.02 0.01-3-0.03-0.9401-3.06-0.4601-6.32-0.53-9.47 0.04-26.78-0.02-53.56 0.03-80.35z" stroke="#000004"/>
				<path d="m1652.8 3.6c0.89-0.02 2.6799-0.06 3.5699-0.08-0.08 19.98 0.0601 39.96-0.0699 59.94-1.73 0.1-3.88 0.08-3.46-2.34-0.14-19.17-0.02-38.35-0.04-57.52z" stroke="#000004"/>
				<path d="m1667.9 3.49c0.88 0.01 2.64 0.05 3.52 0.07-0.09 19.93 0.11 39.87-0.1 59.8-0.8601-0.02-2.5701-0.07-3.4301-0.09-0.05-19.93-0.0699-39.86 0.0101-59.78z" stroke="#000004"/>
				<path d="m1682.7 3.58h3.6001c-0.0701 19.14 0.0699 38.29-0.05 57.42 0.42 2.47-1.73 2.63-3.5 2.44-0.13-19.96-0.03-39.91-0.0501-59.86z" stroke="#000004"/>
				<path d="m1697.8 3.59c0.88 0 2.65 0.01 3.54 0.01-0.0601 19.89 0.0699 39.79-0.0701 59.69-0.85 0.01-2.5599 0.04-3.41 0.06-0.1799-19.92-0.0499-39.84-0.0599-59.76z" stroke="#000004"/>
				<path d="m1712.8 3.59c0.9-0.01 2.7-0.02 3.6-0.02-0.0599 39.89 0.02 79.77-0.05 119.66-1.08 0.18-2.1499 0.36-3.2 0.54-0.8-9.9-0.17-19.84-0.36-29.76 0-30.14-0.02-60.28 0.01-90.42z" stroke="#000004"/>
				<path d="m1727.8 3.45c0.88 0.03 2.64 0.08 3.52 0.11-0.1 20.02 0.14 40.04-0.12 60.06-0.8-0.15-2.39-0.44-3.1899-0.59-0.4701-3.33-0.26-6.7-0.26-10.05 0.0499-16.51-0.0701-33.02 0.0499-49.53z" stroke="#000004"/>
				<path d="m1742.8 3.59c0.91-0.01 2.7201-0.05 3.63-0.06-0.22 19.9 0.3 39.83-0.25 59.71-0.58 0.07-1.73 0.19-2.2999 0.25-2.2001-2.66-0.67-7.1-1.09-10.47 0.02-16.47-0.01-32.95 0.0099-49.43z" stroke="#000005"/>
				<path d="m1757.9 3.45c0.88 0.02 2.65 0.06 3.5399 0.08-0.12 20.03 0.14 40.06-0.1399 60.09-0.78-0.14-2.3601-0.44-3.15-0.59-0.4701-2.98-0.3301-6-0.3201-9.01 0.0801-16.85-0.0499-33.71 0.0701-50.57z" stroke="#000005"/>
				<path d="m1772.9 3.43c0.88-0.01 2.65-0.01 3.5299-0.01 0.04 19.54 0.1801 39.09-0.0599 58.62 0.11 2.76-4.29 1.57-3.45-1.03-0.13-19.19-0.05-38.39-0.02-57.58z" stroke="#000005"/>
				<path d="m1788.1 3.42c0.83 0 2.49 0.01 3.3199 0.01-0.0199 29.72 0.3601 59.46-0.2 89.17-0.77 0.27-2.3 0.8-3.0699 1.07-0.12-1.55-0.1901-3.09-0.1901-4.64 0.3501-28.53-0.0899-57.08 0.1401-85.61z" stroke="#000005"/>
				<path d="m1803.1 3.41c1.13-0.01 2.27-0.01 3.4401 0-0.03 19.52 0.11 39.05-0.0601 58.57 0.15 1.77-2.3199 1.14-3.34 1.54-0.0999-20.04-0.03-40.07-0.04-60.11z" stroke="#000005"/>
				<path d="m1848.1 3.46c0.83 0.02 2.5 0.04 3.33 0.05l0.14 0.01c-0.14 8.66-0.0599 17.33-0.0499 26-0.01 1.68-0.02 3.35 0.02 5.03-0.0701 8.17-0.0601 16.34 0.0099 24.51-0.1 1.36 0.04 2.8-0.5 4.07-0.73 0.1-2.1899 0.3-2.9199 0.4 0.12-8.25-0.4501-16.49-0.1901-24.74 0.04-1.76 0.1001-3.53 0.16-5.3-0.37-10 0.14-20.01 0-30.03z" stroke="#000005"/>
				<path d="m1485.2 120.63c0-2.11-0.22-4.46 1.16-6.22 1.76-2 5.13 0.26 4.76 2.6-0.0699 1.99-0.29 3.97-0.42 5.96 2.8601-3.07 5.52-7.76 10.3-7.66 2.6801-0.21 4.41 2.09 5.89 3.96 3.8199-4.31 12.79-5.74 15.23 0.65 1.8 8.55 2.66 17.31 3.6 26 0.49 2.88-4.96 4.04-5.47 1.08-2.21-8.21-0.64-17.33-4.36-25.12-3.2001-1.18-6.41 2.02-8.72 4-0.4601 7.06 1.45 14.01 1.4299 21.06 0.59 3.31-4.86 4.15-5.5699 1.08-0.41-5.01-0.6901-10.04-1.29-15.04-0.54-4.02 0.35-8.28-1.36-12.09-3.39 2.44-6.29 5.51-8.6901 8.9-0.96 4.67-1.25 9.55-0.49 14.27 0.9401 2.57-2.3899 4.52-4.49 3.32-1.23-1.68-1.6699-3.65-1.77-5.69-0.09-1.89 0.1201-3.84 0.27-5.66 0.61-5.01 0.26-10.05-0.01-15.07 1e-4 -0.11 1e-4 -0.22 1e-4 -0.33z" stroke="#000004"/>
				<path d="m1479.1 141.96c0.0699 0.81-0.2001 1.62-0.9501 2.13-5.0599 4.31-13.11 5.87-18.69 1.6-5.54-3.43-7.0901-10.82-5.02-16.71 1.7999-5.28 4.6899-10.97 10.06-13.33 4.42-1.25 9.53-0.12 13.05 2.84 0.66 0.52 0.96 1.31 0.96 2.1 0 1-0.48 2.02-1.35 2.57-1.11 1.16-2.5699-0.2-3.53-0.82-2.9299-2.33-8.09-2.48-10.28 0.91-2.4601 3.42-4.4401 7.48-4.51 11.75 0.13 4.25 4.0699 7.53 8.1799 7.61 3.3301 0.32 6.04-1.94 9.01-3.05 1.62-0.55 2.93 0.91 3.0701 2.4z" stroke="#000004"/>
				<path d="m1402 158.86c4.0601-4.23 10.41-5.11 15.99-4.5 5.36 0.8 9.5601 5.02 11.92 9.69 2.63 5.64 1.63 12.09 0.45 17.96-1.98 8.38-6.37 16.98-14.41 20.94-3.88 1.86-7.6599 4.21-11.93 5-2.9401 0.84-5.24-3.72-2.63-5.42 4.6799-2.28 10.04-3.35 14.08-6.85 3.41-2.82 5.41-6.86 7.38-10.73-4.15 1.3-8.4199 3.18-12.85 2.26-5.6-1.14-11.1-5.16-12.39-10.96-1.3-6-0.2701-13.03 4.3899-17.39z" stroke="#000005"/>
				<path d="m1407.4 161.5c-3.75 2.87-4.4401 8.14-3.62 12.5 0.97 4.59 5.86 7.23 10.29 7.18 4.0601 0.17 7.38-2.53 10.55-4.69 2.01-6.24-1.33-13.1-6.97-16.07-3.3099-1.25-7.2799-0.78-10.25 1.08z" stroke="#000005"/>
				<path d="m1097.5 161.23c-3.33-0.2-2.98-6.18 0.3099-5.93 9.7101-0.26 19.42 0.49 29.15 0.2 1.9301 0.31 4.78-0.61 6 1.42 0.13 3.47-2.87 5.77-4.87 8.2-6.1799 6.85-9.41 15.62-13.25 23.85-2.58 5.54-3.77 11.7-7 16.93-1.76 2.93-6.66 0.21-5.46-2.85 1.48-5.34 4.02-10.31 5.95-15.49 3.41-9.16 7.5901-18.18 14.05-25.63-8.2899-0.16-16.61-0.04-24.88-0.7z" stroke="#000005"/>
				<path d="m1249.2 172.13c-2.2799-7.5 3.41-15.72 10.89-17.2 4.73-0.9 10.32-0.6 14.07 2.8 3.7699 3.49 4.0399 9.15 3.25 13.91-0.6001 3.12-3.65 4.71-6.03 6.37 3.26 1.81 6.79 3.99 7.97 7.77 1.67 5.26 1.6 11.85-2.5 16-4.66 4.65-11.75 5.53-17.98 4.51-4.3199-0.91-8.95-3.11-10.63-7.48-2.64-6.99-0.62-15.92 6.09-19.87-2.2301-1.8-4.4901-3.9-5.1301-6.81z" stroke="#000005"/>
				<path d="m1259.2 161.2c-2.84 1.37-4.1599 4.76-3.85 7.78 0.1 3.81 4.24 5.95 7.58 6.37 3.1201-0.83 6.9901-1.98 8.1801-5.37 0.76-3.2 0.04-7.55-3.1899-9.1-2.8502-0.6-5.9802-0.76-8.7202 0.32z" stroke="#000005"/>
				<path d="m1257.5 184.41c-4.0399 2.62-5.0599 8.65-2.7 12.69 3.13 4.13 9.12 4.33 13.73 3.1 5-1.79 6.14-8.49 4-12.82-1.8101-3.63-5.9301-4.94-9.49-6.12-1.87 1.02-3.79 1.96-5.54 3.15z" stroke="#000005"/>
				<path d="m1536 162.08c2.67-2.33 5.65-5.45 9.59-4.6 2.61 1.96 0.37 5.73 0.84 8.47 1.3501 14.73-3.2899 29.34-0.9199 44.05 2.4199 0.39 5.97-0.79 7.33 1.95 1.4601 2.02-0.4 5.38-2.86 5.31-6.35 0.06-12.71 0.2-19.04-0.07-3.0299-0.3-3.5299-4.93-0.9099-6.2 2.4399-1.16 5.2999-0.64 7.9399-0.79-1.8099-13.53 0.8301-27.02 1.1801-40.55-2.0801 1.33-3.98 2.97-6.26 3.92-2.53 0.57-4.84-2.18-4.22-4.59 1.7098-2.98 4.8998-4.58 7.3298-6.9z" stroke="#000005"/>
				<path d="m1576.3 158.45c6.73-2.09 14.88-0.89 19.76 4.5 5.61 6.21 7.6899 14.88 7.33 23.09-0.33 8.61-1.0699 17.87-6.1899 25.14-6.77 9.99-23.76 10.42-30.68 0.38-5.8101-8.23-6.48-18.85-6.0699-28.6 0.8999-9.9 5.7199-21.12 15.85-24.51z" stroke="#000005"/>
				<path d="m1578.4 165.56c-7.52 3.09-10.32 12.02-10.71 19.5 0.0399 7.59 0.34 15.95 5.0599 22.28 4.04 5.62 13.55 5.45 17.6-0.09 4.0499-5.49 5.11-12.56 5.33-19.22 0.2-6.41-0.13-13.32-3.83-18.81-2.86-4.26-8.85-5.27-13.45-3.66z" stroke="#000005"/>
			</g>
	<path d="m60.69 0h2.67c0.18 1.19 0.31 2.39 0.4 3.6 0.11 39.87 0.01 79.75 0.04 119.62-0.8 0.14-2.41 0.43-3.21 0.57-0.52-6.6-0.18-13.22-0.27-19.83 0.06-33.47-0.12-66.95 0.09-100.42 0.07-1.18 0.18-2.36 0.28-3.54z" fill="#000005" stroke="#000005" stroke-width=".0938"/>
	<path d="m90.73 0h2.66c0.1 1.17 0.18 2.33 0.26 3.5 0.2 17.82-0.04 35.64 0.11 53.46-0.02 1.93 0.08 3.88-0.28 5.78-0.38 1.51-3.54 0.99-3.15-0.77-0.21-19.46-0.07-38.94-0.06-58.41 0.11-1.19 0.27-2.38 0.46-3.56z" fill="#000005" stroke="#000005" stroke-width=".0938"/>
	<path d="m105.64 0h2.69c0.18 1.19 0.33 2.38 0.43 3.58 0.04 19.45 0.13 38.91-0.04 58.35 0.37 2.14-3.65 2.21-3.33 0.04-0.14-19.48-0.12-38.98 0-58.47 0.07-1.17 0.16-2.33 0.25-3.5z" fill="#000005" stroke="#000005" stroke-width=".0938"/>
	<path d="m120.72 0h2.72c0.1 1.17 0.18 2.35 0.26 3.52 0.14 19.48 0.13 38.97 0.01 58.44 0.4 2.13-3.63 2.13-3.32 0.03-0.17-19.47-0.08-38.95-0.04-58.42 0.08-1.2 0.21-2.39 0.37-3.57z" fill="#000005" stroke="#000005" stroke-width=".0938"/>
	<path d="m135.68 0h2.71c0.19 1.19 0.34 2.38 0.44 3.58 0.08 29.95 0.05 59.91 0.02 89.87-0.75-0.02-2.24-0.05-2.99-0.07-0.49-1.39-0.5-2.88-0.52-4.34 0.14-28.52-0.08-57.05 0.11-85.57 0.07-1.16 0.15-2.31 0.23-3.47z" fill="#000005" stroke="#000005" stroke-width=".0938"/>
	<path d="m631.71 0h2.66c0.09 1.19 0.18 2.38 0.26 3.57 0.13 19.46 0.14 38.93 0 58.38 0.35 2.12-3.67 2.16-3.33 0.05-0.16-19.5-0.08-39.01-0.03-58.51 0.1-1.17 0.25-2.33 0.44-3.49z" fill="#000005" stroke="#000005" stroke-width=".0938"/>
	<path d="m661.63 0h2.7c0.16 1.16 0.29 2.33 0.4 3.49 0.1 40.01 0.02 80.03 0.03 120.04-0.73-0.03-2.19-0.08-2.92-0.11-0.73-1.34-0.51-2.93-0.59-4.39 0.15-38.48-0.09-76.97 0.12-115.46 0.05-1.19 0.16-2.38 0.26-3.57z" fill="#000005" stroke="#000005" stroke-width=".0938"/>
	<path d="m676.73 0h2.62c0.09 1.19 0.19 2.37 0.26 3.56 0.11 19.46 0.16 38.92-0.01 58.37 0.19 1.92-2.24 1.24-3.35 1.52-0.04-19.97-0.07-39.95 0.01-59.93 0.11-1.18 0.27-2.35 0.47-3.52z" fill="#000005" stroke="#000005" stroke-width=".0938"/>
	<path d="m691.69 0h2.68c0.08 1.17 0.16 2.33 0.24 3.5 0.12 19.48 0.14 38.98 0 58.46 0.23 1.88-2.3 1.16-3.38 1.48-0.05-19.96-0.07-39.91 0.01-59.87 0.09-1.19 0.24-2.38 0.45-3.57z" fill="#000005" stroke="#000005" stroke-width=".0938"/>
	<path d="m706.73 0h2.66c0.1 1.19 0.21 2.38 0.29 3.58 0.17 19.89 0.07 39.78 0.05 59.67-1.15 0.01-2.29 0.01-3.42 0.02-0.03-19.93-0.07-39.86 0.01-59.78 0.09-1.17 0.23-2.33 0.41-3.49z" fill="#000005" stroke="#000005" stroke-width=".0938"/>
	<path d="m721.74 0h2.68c0.08 1.17 0.17 2.34 0.25 3.51 0.12 19.49 0.15 38.99-0.01 58.47 0.44 1.77-2.66 2.16-3.15 0.81-0.31-1.58-0.27-3.2-0.28-4.79 0.12-18.15-0.04-36.3 0.08-54.44 0.09-1.19 0.24-2.38 0.43-3.56z" fill="#000005" stroke="#000005" stroke-width=".0938"/>
	<path d="m766.7 0h2.72c0.18 1.19 0.32 2.39 0.44 3.59 0.04 19.48 0.14 38.98-0.05 58.46 0.41 2.13-3.62 1.96-3.32-0.11-0.14-19.45-0.12-38.91-0.01-58.36 0.05-1.2 0.13-2.39 0.22-3.58z" fill="#000005" stroke="#000005" stroke-width=".0938"/>
	<path d="m796.54 0h2.72c0.29 0.81 0.88 2.44 1.18 3.26 3.42 0.16 6.85 0.09 10.27-0.24 0.46-1.01 0.95-2.02 1.46-3.02h2.04c0.35 1.07 0.71 2.15 1.08 3.22 3.45 0.2 6.92 0.17 10.38-0.11 0.49-1.05 1.01-2.08 1.56-3.11h2.01c0.35 1.06 0.72 2.12 1.09 3.19 3.55 0.16 7.12 0.2 10.68 0.09 0.32-1.1 0.67-2.19 1.05-3.28h2.47c0.11 1.19 0.24 2.37 0.37 3.56-1.15-0.04-2.29-0.07-3.4301-0.09-3.87-0.06-7.75-0.02-11.62-0.1-1.19-0.01-2.35-0.03-3.52-0.02-3.84 0.06-7.68 0.14-11.52 0.03-1.18-0.02-2.32-0.04-3.48-0.04-3.8 0.05-7.6 0.11-11.39 0.13-0.81 0.01-2.43 0.03-3.25 0.04-0.0599-1.17-0.1099-2.34-0.1499-3.51z" fill="#000038" stroke="#000038" stroke-width=".0938"/>
	<path d="m75.41 3.24c1.18 0.14 2.35 0.27 3.53 0.4-0.34 19.43 0.06 38.88-0.19 58.32 0.46 2.12-3.6 2.13-3.29 0.04-0.17-19.47-0.04-38.95-0.06-58.43l0.01-0.33z" fill="#000005" stroke="#000005" stroke-width=".0938"/>
	<path d="m150.44 3.32c1.12 0.03 2.25 0.06 3.38 0.09 0.03 20 0.02 40.01 0.01 60.01-0.71-0.05-2.13-0.15-2.83-0.2-0.93-1.16-0.46-2.85-0.65-4.24 0.12-18.46-0.03-36.93 0.08-55.4l0.01-0.26z" fill="#000005" stroke="#000005" stroke-width=".0938"/>
	<path d="m195.57 3.43c1.15-0.02 2.31-0.04 3.47-0.04 0 19.96 0.15 39.92-0.08 59.87-0.83 0.04-2.5 0.1-3.33 0.13-0.23-19.98-0.12-39.97-0.06-59.96z" fill="#000004" stroke="#000004" stroke-width=".0938"/>
	<path d="m465.96 3.26c1.13 0.05 2.27 0.09 3.42 0.13 0.1 19.99 0.16 39.99-0.03 59.99-0.85-0.03-2.53-0.08-3.37-0.11-0.15-19.88-0.1-39.76-0.03-59.64l0.01-0.37z" fill="#000004" stroke="#000004" stroke-width=".0938"/>
	<path d="m511.15 3.37c1.14-0.02 2.28-0.04 3.44-0.04-0.05 38.91-0.02 77.82-0.01 116.73-0.03 1.12-0.16 2.24-0.37 3.35-0.77 0.02-2.32 0.06-3.09 0.08 0.05-40.04 0-80.08 0.03-120.12z" fill="#000005" stroke="#000005" stroke-width=".0938"/>
	<path d="m586.16 3.4c1.13-0.04 2.28-0.06 3.4301-0.06-0.01 28.55-0.05 57.1 0.02 85.65-0.04 1.45-0.09 2.91-0.38 4.34-0.77 0.03-2.3 0.1-3.07 0.13-0.0101-30.02-0.0101-60.04-1e-4 -90.06z" fill="#000005" stroke="#000005" stroke-width=".0938"/>
	<path d="m601.18 3.38c1.12-0.04 2.26-0.09 3.4-0.14l0.02 0.33c0.04 19.45 0.12 38.92-0.03 58.37 0.3 2.13-3.78 2.18-3.33 0.02-0.18-19.52-0.03-39.05-0.06-58.58z" fill="#000005" stroke="#000005" stroke-width=".0938"/>
	<path d="m616.21 3.13c1.16 0.11 2.33 0.21 3.5 0.32-0.23 19.5 0.15 39.02-0.18 58.51 0.18 2.05-2.07 1.22-3.3 1.43-0.05-19.93 0.03-39.85-0.05-59.78l0.03-0.48z" fill="#000005" stroke="#000005" stroke-width=".0938"/>
	<path d="m646.28 3.22c1.1299-0.01 2.2599-0.02 3.4-0.03l0.02 0.41c0 19.45 0.1 38.91-0.05 58.36 0.38 2.11-3.69 2.14-3.3 0.01-0.18-19.45 0-38.91-0.09-58.36l0.02-0.39z" fill="#000005" stroke="#000005" stroke-width=".0938"/>
	<path d="m736.28 3.46c1.23 0.04 2.45 0.07 3.7 0.11-0.34 29.95-0.02 59.92-0.16 89.87-0.75-0.01-2.24-0.05-2.98-0.07-0.94-3.03-0.4-6.26-0.51-9.38-0.01-26.84 0.09-53.69-0.05-80.53z" fill="#000005" stroke="#000005" stroke-width=".0938"/>
	<path d="m751.38 3.28c1.18 0.12 2.35 0.24 3.56 0.36-0.32 19.93-0.02 39.87-0.16 59.8-0.71-0.05-2.14-0.15-2.85-0.2-0.9-1.55-0.5-3.47-0.62-5.18 0.11-18.16-0.02-36.32 0.06-54.48l0.01-0.3z" fill="#000005" stroke="#000005" stroke-width=".0938"/>
	<path d="m781.46 3.15c1.14 0.16 2.3 0.33 3.46 0.49-0.19 19.45 0.08 38.92-0.13 58.37 0.47 2.15-3.56 2.01-3.29-0.05-0.16-19.46-0.03-38.93-0.05-58.4l0.01-0.41z" fill="#000005" stroke="#000005" stroke-width=".0938"/>
	<path d="m811.33 3.34c1.16 0 2.3 0.02 3.48 0.04 0.02 40.06 0.01 80.11 0 120.16l-3-0.12c-0.81-3.4-0.35-6.92-0.43-10.37-0.02-36.57 0.08-73.14-0.05-109.71z" fill="#000005" stroke="#000005" stroke-width=".0938"/>
	<path d="m826.33 3.35c1.17-0.01 2.33 0.01 3.52 0.02-0.05 19.55 0.13 39.1-0.0699 58.64 0.49 2.15-3.64 2.01-3.3101-0.04-0.24-19.54 0.06-39.08-0.14-58.62z" fill="#000005" stroke="#000005" stroke-width=".0938"/>
	<path d="m1863 3.14c1.16 0.22 2.34 0.43 3.5499 0.64-0.0499 3.58-0.0299 7.15 0 10.73-0.0199 1.68-0.0199 3.37 0.01 5.06-0.01 12.61-0.12 25.23 0.04 37.85l0.03 0.47c-1.22 1.14-2.4301 2.29-3.62 3.43 0.08-12.51 0.02-25.03 0.03-37.54-0.02-1.72-0.03-3.44 0-5.16 0.0399-5.01-0.02-10.01-0.0701-15.02l0.0302-0.46z" fill="#000005" stroke="#000005" stroke-width=".0938"/>
	<path d="m165.46 3.4c1.15-0.01 2.31-0.01 3.46 0-0.05 19.54 0.14 39.09-0.08 58.62 0.45 2.17-3.56 2.03-3.31-0.07-0.2-19.51-0.04-39.03-0.07-58.55z" fill="#000005" stroke="#000005" stroke-width=".0938"/>
	<path d="m180.49 3.42c1.11-0.01 2.23-0.02 3.36-0.01 0.56 7.19-0.13 14.39 0.03 21.59 0.45 11.34-0.22 22.69 0.23 34.03-0.2 1.57 0.47 5.14-2.23 4.42-1.85 0.27-1.13-2.35-1.42-3.41 0.04-18.88 0-37.75 0.03-56.62z" fill="#000005" stroke="#000005" stroke-width=".0938"/>
	<path d="m210.62 3.49c0.89 0.01 2.67 0.03 3.57 0.05-0.05 38.13-0.02 76.26-0.02 114.4-0.05 1.94-0.23 3.88-0.41 5.82-1.06-0.16-2.12-0.33-3.17-0.5-0.02-39.92-0.08-79.85 0.03-119.77z" fill="#000004" stroke="#000004" stroke-width=".0938"/>
	<path d="m225.6 3.56c0.87-0.03 2.61-0.07 3.48-0.09 0.1 19.94 0.05 39.88 0.02 59.82-0.86 0.01-2.58 0.02-3.44 0.03-0.17-19.92-0.04-39.84-0.06-59.76z" fill="#000004" stroke="#000004" stroke-width=".0938"/>
	<path d="m240.51 3.49c1.14 0.02 2.28 0.05 3.42 0.09-0.12 19.48 0.25 38.96-0.1 58.43 0.53 2.18-3.52 2.04-3.26-0.05-0.18-19.48-0.03-38.98-0.06-58.47z" fill="#000005" stroke="#000005" stroke-width=".0938"/>
	<path d="m255.44 3.54h0.32c0.83-0.02 2.49-0.05 3.31-0.07 0.11 18.85 0.04 37.71 0.05 56.56 0.25 2.08-0.76 4.59-3.25 3.28-0.73-3.75-0.29-7.59-0.37-11.37-0.03-16.13 0.08-32.27-0.06-48.4z" fill="#000005" stroke="#000005" stroke-width=".0938"/>
	<path d="m270.15 3.84c0.99-0.09 2.96-0.26 3.94-0.35 0.11 16.84-0.01 33.68 0.07 50.51 0 3 0.15 6.03-0.34 9-0.78 0.17-2.34 0.5-3.12 0.67-0.3-18.55-0.06-37.11-0.12-55.67-0.04-1.4-0.19-2.78-0.43-4.16z" fill="#000005" stroke="#000005" stroke-width=".0938"/>
	<path d="m285.58 3.54c0.92 0.01 2.76 0.03 3.68 0.04-0.19 28.13-0.03 56.26-0.07 84.39-0.05 1.9-0.22 3.8-0.4 5.69-1.05-0.13-2.1-0.27-3.14-0.41-0.16-29.9-0.03-59.8-0.07-89.71z" fill="#000005" stroke="#000005" stroke-width=".0938"/>
	<path d="m300.65 3.56c0.87-0.03 2.62-0.07 3.49-0.09 0.1 19.93 0.09 39.87 0 59.81-0.85 0.01-2.56 0.05-3.42 0.07-0.17-19.93-0.04-39.86-0.07-59.79z" fill="#000004" stroke="#000004" stroke-width=".0938"/>
	<path d="m315.65 3.54c0.92 0.01 2.77 0.02 3.69 0.03-0.22 14.47-0.03 28.95-0.1 43.42-0.07 5.55 0.33 11.12-0.44 16.64-1.03-0.14-2.05-0.29-3.07-0.44-0.18-19.88-0.03-39.77-0.08-59.65z" fill="#000004" stroke="#000004" stroke-width=".0938"/>
	<path d="m330.72 3.59c0.91 0 2.72-0.02 3.63-0.02-0.26 19.91 0.07 39.83-0.17 59.75h-3.4c-0.16-19.91-0.03-39.82-0.06-59.73z" fill="#000004" stroke="#000004" stroke-width=".0938"/>
	<path d="m345.73 3.59c0.92 0 2.76-0.01 3.68-0.02-0.26 19.17 0.04 38.34-0.14 57.5 0.45 2.46-1.8 2.52-3.5 2.34-0.11-19.94-0.03-39.88-0.04-59.82z" fill="#000004" stroke="#000004" stroke-width=".0938"/>
	<path d="m360.78 3.6c0.89-0.01 2.67-0.01 3.55-0.02-0.02 36.12 0 72.24 0 108.35-0.05 3.68 0.23 7.37-0.2 11.04-0.69 1.09-2.3 0.76-3.18 0.12-0.36-3.38-0.17-6.78-0.18-10.16 0.02-36.45-0.01-72.89 0.01-109.33z" fill="#000004" stroke="#000004" stroke-width=".0938"/>
	<path d="m375.7 3.59c0.91-0.01 2.74-0.03 3.65-0.03-0.22 18.81-0.04 37.63-0.08 56.44-0.09 1.36-0.02 4.31-2.15 3.49-1.84 0.03-1.22-2.35-1.45-3.5 0.03-18.8 0-37.6 0.03-56.4z" fill="#000004" stroke="#000004" stroke-width=".0938"/>
	<path d="m390.69 3.59c0.91 0 2.73-0.02 3.64-0.02-0.21 18.14-0.04 36.29-0.08 54.44-0.04 1.97-0.22 3.93-0.43 5.89-1.45-0.49-3.58-0.64-3.09-2.78-0.13-19.17-0.01-38.35-0.04-57.53z" fill="#000004" stroke="#000004" stroke-width=".0938"/>
	<path d="m405.77 3.58h3.56c-0.13 19.53 0.19 39.06-0.15 58.58 0.22 1.78-2.32 0.91-3.36 1.38-0.13-19.99-0.03-39.98-0.05-59.96z" fill="#000004" stroke="#000004" stroke-width=".0938"/>
	<path d="m420.75 3.59c0.89-0.01 2.68-0.04 3.58-0.05-0.12 19.55 0.16 39.1-0.13 58.64 0.42 1.74-1.87 1.05-2.8 1.37-0.64-1.44-0.67-3.03-0.69-4.57 0.08-18.46 0.01-36.92 0.04-55.39z" fill="#000004" stroke="#000004" stroke-width=".0938"/>
	<path d="m435.89 3.47c0.88 0.02 2.63 0.06 3.51 0.09-0.06 29.17 0.04 58.34-0.05 87.52 1.02 3.23-4.49 3.43-3.47 0.03-0.07-29.21-0.08-58.43 0.01-87.64z" fill="#000004" stroke="#000004" stroke-width=".0938"/>
	<path d="m450.81 3.59c0.9-0.01 2.7-0.01 3.6-0.02-0.09 19.89 0.09 39.77-0.09 59.66-1.04 0.12-2.07 0.24-3.1 0.36-0.53-4.17-0.47-8.38-0.42-12.57 0.01-15.81 0-31.62 0.01-47.43z" fill="#000004" stroke="#000004" stroke-width=".0938"/>
	<path d="m480.93 3.42h3.5c-0.04 19.92 0.33 39.88-0.18 59.79-2.48 1.51-3.64-1-3.39-3.15 0.03-18.88-0.08-37.76 0.07-56.64z" fill="#000005" stroke="#000005" stroke-width=".0938"/>
	<path d="m496.03 3.44c1.15 0 2.31-0.01 3.47 0-0.06 19.51 0.18 39.04-0.1 58.54 0.15 1.93-2.12 1.18-3.3 1.52-0.22-20.01-0.07-40.04-0.07-60.06z" fill="#000005" stroke="#000005" stroke-width=".0938"/>
	<path d="m525.91 3.48c0.88 0.01 2.65 0.02 3.54 0.03-0.12 20.04 0.15 40.09-0.14 60.13-0.78-0.15-2.35-0.46-3.13-0.62-0.53-3.3-0.32-6.65-0.33-9.98 0.06-16.52-0.05-33.04 0.06-49.56z" fill="#000005" stroke="#000005" stroke-width=".0938"/>
	<path d="m540.84 3.8c0.9-0.07 2.71-0.22 3.61-0.3 0.03 19.51 0.17 39.02-0.06 58.51 0.18 2.77-4.3 1.63-3.45-0.98-0.18-19.07 0.03-38.15-0.1-57.23z" fill="#000005" stroke="#000005" stroke-width=".0938"/>
	<path d="m556.14 3.45c0.83-0.01 2.48-0.01 3.3-0.01 0.04 20.09 0.23 40.2-0.09 60.29-1.63-0.4-3.92-0.39-3.36-2.71 0.38-19.18-0.29-38.39 0.15-57.57z" fill="#000005" stroke="#000005" stroke-width=".0938"/>
	<path d="m571.12 3.41c1.14 0 2.28 0 3.43 0.01 0.06 18.54-0.04 37.08 0.06 55.62-0.04 1.4-0.07 2.82-0.45 4.17-0.75 0.06-2.2599 0.17-3.0099 0.23-0.0701-20.01-0.0201-40.02-0.0301-60.03z" fill="#000005" stroke="#000005" stroke-width=".0938"/>
	<path d="m796.42 3.52l0.27-0.01c0.82-0.01 2.44-0.03 3.25-0.04 0.1 19.51 0.15 39.04-0.04 58.54 0.36 2.18-3.62 2.05-3.34-0.1-0.23-19.46 0.07-38.93-0.14-58.39z" fill="#000005" stroke="#000005" stroke-width=".0938"/>
	<path d="m841.47 3.47c1.14 0.02 2.28 0.05 3.4301 0.09-0.1 19.98 0.05 39.95-0.07 59.93-0.74-0.07-2.21-0.2-2.94-0.27-0.75-2.68-0.41-5.49-0.45-8.23 0.0599-17.17-0.0201-34.35 0.0299-51.52z" fill="#000005" stroke="#000005" stroke-width=".0938"/>
	<path d="m856.4 3.53h0.3c0.84-0.01 2.5-0.03 3.34-0.04-0.15 19.51 0.23 39.04-0.12 58.54 0.34 2.09-3.86 2.07-3.35-0.11-0.29-19.46 0.06-38.93-0.17-58.39z" fill="#000005" stroke="#000005" stroke-width=".0938"/>
	<path d="m871.7 3.41c0.84 0 2.52 0.02 3.36 0.02 0.02 19.96 0.23 39.93-0.11 59.89-0.84 0-2.5 0.01-3.34 0.01-0.08-19.97-0.25-39.95 0.09-59.92z" fill="#000005" stroke="#000005" stroke-width=".0938"/>
	<path d="m886.6 3.48c0.89 0.02 2.69 0.05 3.58 0.07-0.07 24.48 0 48.96-0.03 73.45-0.06 5.57 0.29 11.16-0.42 16.7-1.06-0.17-2.11-0.35-3.15-0.52-0.05-29.9-0.09-59.8 0.02-89.7z" fill="#000005" stroke="#000005" stroke-width=".0938"/>
	<path d="m901.6 3.56l3.56 0.24c-0.04 19.83 0.11 39.67-0.08 59.5-0.84 0.01-2.54 0.03-3.39 0.04-0.19-19.93-0.03-39.85-0.09-59.78z" fill="#000004" stroke="#000004" stroke-width=".0938"/>
	<path d="m916.53 3.56h3.78c-0.24 19.88 0.02 39.77-0.13 59.65-0.87 0.05-2.59 0.16-3.45 0.21-0.32-19.95 0.07-39.91-0.2-59.86z" fill="#000004" stroke="#000004" stroke-width=".0938"/>
	<path d="m931.68 3.59c0.91-0.01 2.73-0.02 3.64-0.02-0.26 19.91 0.04 39.83-0.15 59.74h-3.43c-0.15-19.9-0.03-39.81-0.06-59.72z" fill="#000004" stroke="#000004" stroke-width=".0938"/>
	<path d="m946.69 3.58h3.6c-0.06 19.95 0.06 39.9-0.06 59.84-0.96 0-1.89-0.03-2.82-0.1-0.97-1.24-0.67-2.89-0.77-4.34 0.1-18.47 0.01-36.93 0.05-55.4z" fill="#000004" stroke="#000004" stroke-width=".0938"/>
	<path d="m961.59 3.55c0.87-0.02 2.62-0.06 3.49-0.08 0.12 39.98 0.01 79.95 0.05 119.92-1.19 0.01-2.37 0.01-3.53 0.01-0.03-39.95-0.02-79.9-0.01-119.85z" fill="#000004" stroke="#000004" stroke-width=".0938"/>
	<path d="m976.65 3.54c0.92 0.01 2.75 0.02 3.66 0.03-0.21 14.49-0.03 28.98-0.09 43.47-0.1 5.64 0.39 11.31-0.54 16.9-1.41-0.54-3.52-0.68-2.98-2.78-0.15-19.2-0.01-38.41-0.05-57.62z" fill="#000004" stroke="#000004" stroke-width=".0938"/>
	<path d="m207.54 158.61c3.02-2.32 5.74-5.83 10-5.29 0.96 3.51-0.04 7.12 0.21 10.68 0.67 11.43-2.79 22.79-0.8 34.2 1.62 0.48 3.35 0.37 5.01 0.68 2.51 1.1 2.02 5.87-0.96 5.85-5.35 0.15-10.72 0.13-16.07 0.01-2.61 0.19-3.73-3.99-1.45-5.19 2.18-1.02 4.69-0.73 7.03-0.96-1.44-11.55 0.7-23.07 0.9-34.62-1.76 1.18-3.43 2.51-5.35 3.42-2.2 0.55-4.42-2.25-3.48-4.27 1.34-1.81 3.23-3.1 4.96-4.51z" fill="#000005" stroke="#000005" stroke-width=".0938"/>
	<path d="m355.99 155.97c7.06-3.76 17.74-1.84 21.19 5.96 1.5 5.07 0.04 10.86-3.28 14.93-4.79 5.32-11.83 7.85-16.84 12.91-2.33 2.34-3.1 5.67-3.51 8.85 6.81-0.5 13.67-1.67 20.5-0.74 1.39 0.43 2.83 1.08 3.78 2.24 1.45 1.81-0.5 5.24-2.83 4.55-7.26-1.42-14.66-0.23-21.95 0.21-2.02-0.01-4.73 0.02-5.36-2.39-0.96-5.72-0.15-12.37 4.16-16.63 4.96-4.82 11.48-7.7 16.28-12.71 2.03-2.12 3.24-5.19 2.89-8.12-1.26-3.51-5.56-4.86-8.99-4.39-4.97 0.19-7.33 6.01-12.14 6.52-2.48-0.06-3.34-3.24-1.8-4.89 2.25-2.52 4.98-4.6 7.9-6.3z" fill="#000005" stroke="#000005" stroke-width=".0938"/>
	<path d="m664.93 156c1.88-3.33 9.67-4.16 9.21 1 0.05 9-0.1 18.01 0.06 27.01 2.63 0.13 5.39 0.21 7.62 1.84-0.5 1.43-0.36 3.35-1.85 4.2-1.89 0.57-3.89 0.31-5.81 0.38-0.1299 4.24 0.17 8.49-0.1299 12.72-0.08 3.59-6 3.22-6.33-0.1-0.32-4.26 0.08-8.53-0.04-12.8-6.94-0.05-13.89-0.07-20.8-0.62-1.69 0.11-2.62-1.36-3.51-2.51 7.3699-10.24 14.46-20.69 21.58-31.12m-11.03 27.67c4.58 0.02 9.17 0.12 13.76 0.13-0.04-7 0.03-14.01-0.03-21.01-4.6799 6.89-8.9599 14.05-13.73 20.88z" fill="#000005" stroke="#000005" stroke-width=".0938"/>
	<path d="m797.23 155.66c2.16-1.9 5.15-1.16 7.77-1.29 7.03-0.05 14.1 0.25 21.11-0.45 2.38 0.08 3.68 3.45 1.93 5.09-1.94 1.73-4.68 1.66-7.1 1.66-5.11-0.07-10.22 0.06-15.33 0.07-0.53 3.5-0.99 7.02-1.36 10.56 5.05-2.8 11.12-3.96 16.74-2.39 4.93 1.46 7.83 6.3 8.92 11.06 1.78 7.66 0.31 16.69-5.83 22.08-7.22 7-21.57 6.99-26.95-2.28-1.27-1.55-0.15-4.51 1.88-4.63 3.45-0.82 4.47 3.51 7.25 4.55 4.32 1.67 9.72 1.02 13.11-2.32 5.6-4.94 6.3-13.95 2.53-20.16-2.26-3.15-6.58-2.72-9.94-2.27-4.48 1.07-6.55 5.65-10.06 8.16-1.55 1.19-3.72 0.24-4.48-1.38-1.15-8.63 3.5-17.74-0.19-26.06z" fill="#000005" stroke="#000005" stroke-width=".0938"/>
	<path d="m947.25 178.93c2.17-10.5 9.92-18.51 17.82-25.18 2.22-0.98 4.71 0.95 4.43 3.32-4.44 6.62-12.49 10.64-14.69 18.77 6.1-3.01 14.06-3.73 19.61 0.81 6.09 5.57 6.21 15.41 2.61 22.37-4.59 8.84-18.11 11.34-25.27 4.32-6.09-6.42-6.09-16.24-4.51-24.41m11.24 1.65c-1.98 0.78-3.94 1.8-5.47 3.31-0.71 5.31-0.06 11.38 3.75 15.46 2.56 2.7 6.88 2.62 10.15 1.4 5.69-2.73 7.18-10.34 5.23-15.86-2.31-5.21-8.89-5.25-13.66-4.31z" fill="#000005" stroke="#000005" stroke-width=".0938"/>
	<path d="m499.01 160.05c6.14-6.75 18.42-7.81 24.78-0.83 4.9901 5.62 3.36 16.1-4.07 18.8 2.69 1.58 5.61 3.32 6.79 6.39 2.45 6.04 1.18 13.82-4.04 18.05-7.23 6.57-21.03 4.66-25.29-4.4-1.88-2.78 1.98-6.07 4.59-4.25 1.84 2.12 3.14 5.17 6.21 5.71 4.44 1.58 9.95 0.07 12.33-4.14 2.16-4.19 0.12-9.59-3.73-12.04-3.11-2.32-7.22-1.94-10.67-3.36-0.9-1.31-1.06-3.68 0.72-4.35 3.44-1.6 7.38-1.65 10.83-3.24 2.93-1.47 4.19-5.38 2.4-8.19-1.71-3.11-5.7-3.46-8.85-3.35-3.54 0.05-5.96 3.01-9.15 4.05-2.24 0.27-4.43-2.99-2.85-4.85z" fill="#000005" stroke="#000005" stroke-width=".0938"/>
	<path d="m56.39 158.41c6.5-1.95 14.3-0.93 19.2 4.08 6.22 6.44 8.27 15.81 7.76 24.52-0.43 8.94-1.37 18.8-7.52 25.84-5.04 5.88-13.75 7.13-20.88 5.02-7.66-2.53-11.84-10.43-13.37-17.88-1.73-9.21-2.24-19.14 1.49-27.95 2.43-6.03 6.9-11.67 13.32-13.63m2.02 7.13c-4.3 1.52-7.06 5.53-8.67 9.6-2.66 6.31-2.39 13.35-1.51 20 0.57 4.54 1.91 9.16 4.9 12.72 4.24 5.09 13.21 4.74 17.14-0.56 3.88-5.18 5.03-11.87 5.33-18.19 0.27-6.75 0.12-14.06-3.78-19.88-2.84-4.26-8.8-5.27-13.41-3.69z" fill="#000005" stroke="#000005" stroke-width=".0938"/>
	<path d="m360.81 1034.9c0.86 0 2.58 0.01 3.45 0.01-0.01 0.87-0.01 2.6001-0.02 3.4701-1.17-0.04-2.34-0.0701-3.5-0.0801 0.02-0.8499 0.05-2.5499 0.07-3.4z" enable-background="new    " fill="#000049" opacity=".73" stroke="#000049" stroke-width=".0938"/>
	<path d="m372.17 1042.4c1.24-1.3101 2.5-2.59 3.77-3.85 0.9 0.7799 1.8 1.58 2.71 2.3899-1.28 1.3101-2.58 2.6001-3.91 3.8601-0.86-0.82-1.71-1.6199-2.57-2.4z" enable-background="new    " fill="#00004A" opacity=".73" stroke="#00004A" stroke-width=".0938"/>
</svg>
