<?xml version="1.0" encoding="UTF-8"?>
<!DOCTYPE svg  PUBLIC '-//W3C//DTD SVG 1.1//EN'  'http://www.w3.org/Graphics/SVG/1.1/DTD/svg11.dtd'>
<svg enable-background="new 0 0 450 750" version="1.1" viewBox="0 0 450 750" xml:space="preserve" xmlns="http://www.w3.org/2000/svg">
<path d="m210.1 474.79c0 20.909-16.949 37.858-37.858 37.858-20.907 0-37.858-16.949-37.858-37.858 0-20.911 28.325-70.039 38.42-87.215 0.2-0.34 37.3 66.3 37.3 87.21z" fill="#1D71B8"/>
<path d="m210.1 626.22c0 20.906-16.952 37.858-37.86 37.858s-37.859-16.952-37.859-37.858c0-20.911 28.326-70.04 38.419-87.216 0.2-0.34 37.3 66.31 37.3 87.22z" fill="#1D71B8"/>
<rect x="337.26" y="53.083" width="27.176" height="69.195" fill="#1D71B8"/>
<rect x="329" y="53.083" width="43.678" height="39.686" fill="#1D71B8"/>
<g fill="#1D71B8">
	<polygon points="372.68 76.435 372.68 69.408 392.59 62.48 392.59 83.346"/>
	<polygon points="443.05 86.719 392.59 83.359 392.59 62.494 443.05 59.139"/>
</g>
<path d="m442.36 86.687c7.405 0 8.125-6.168 8.125-13.774s-0.72-13.773-8.125-13.773v27.547z" fill="#1D71B8"/>
<g fill="#1D71B8">
	<polygon points="329 76.448 329 69.421 309.1 62.494 309.1 83.359"/>
	<polygon points="258.64 86.716 309.1 83.356 309.1 62.491 258.64 59.137"/>
</g>
<path d="m259.33 86.687c-7.405 0-8.125-6.168-8.125-13.774s0.72-13.773 8.125-13.773v27.547z" fill="#1D71B8"/>
		<rect x="235.9" y="205.48" width="215.28" height="88.408" fill="#1D71B8"/>
		<path d="m237.28 205.48c-43.277 0-101.52 37.265-101.52 86.557v45.851h76.489c0-23.251 15.94-44 36.097-44l-11.069-88.022v-0.39z" fill="#1D71B8"/>
		<path d="m398.38 249.47c0 16.5-13.5 30-30 30h-35.074c-16.5 0-30-13.5-30-30v-108.26c0-16.5 13.5-30 30-30h35.074c16.5 0 30 13.5 30 30v108.26z" fill="#1D71B8"/>
	<rect x="281.86" y="163.79" width="137.97" height="20.192" fill="#1D71B8"/>
	<path d="m345.27 205.48" fill="#1D71B8"/>
	<path d="m409.74 202.05" fill="#1D71B8"/>
	<path d="m295.1 205.48l-6e-3 6e-3h8.207v-8.207l-5e-3 5e-3c-0.05 4.5-3.69 8.14-8.2 8.2z" fill="#1D71B8"/>
	<path d="m406.58 205.48l6e-3 6e-3h-8.208v-8.207l6e-3 5e-3c0.05 4.5 3.69 8.14 8.19 8.2z" fill="#1D71B8"/>
	<rect x="135.76" y="337.89" width="76.489" height="10.454" fill="#1D71B8"/>
	<path d="m251.95 293.89" fill="#1D71B8"/>
	<path d="m266.87 301.17" fill="#1D71B8"/>
		<path d="m252.19 293.41c48.254 0 48.254 18 96.509 18s48.255-18 96.509-18" fill="#1D71B8"/>
		<path d="m252.19 293.41c48.254 0 48.254 18 96.509 18s48.255-18 96.509-18" fill="none" stroke="#1D71B8" stroke-miterlimit="10"/>
		<path d="m0-4" fill="#1D71B8"/>
		<path d="m0-4" fill="none" stroke="#1D71B8" stroke-miterlimit="10"/>
<path d="m268.27 293.85" fill="none" stroke="#1D71B8" stroke-miterlimit="10"/>
<path d="m211.43 348.34" fill="none" stroke="#1D71B8" stroke-miterlimit="10"/>
<path d="m266.87 294.55" fill="#E6007E"/>
</svg>
