<?xml version="1.0" encoding="UTF-8"?>
<svg viewBox="0 0 340.5 233.86078" xmlns="http://www.w3.org/2000/svg">
 <defs>
  <filter id="e" x="-.13133" y="-.13131" width="1.2627" height="1.2626">
   <feGaussianBlur stdDeviation="10.13376"/>
  </filter>
  <linearGradient id="d" x1="288.39" x2="360.89" y1="462.83" y2="323.33" gradientUnits="userSpaceOnUse">
   <stop stop-color="#2e3436" offset="0"/>
   <stop stop-color="#555753" offset="1"/>
  </linearGradient>
  <linearGradient id="c" x1="385.78" x2="347.56" y1="580.84" y2="303.16" gradientUnits="userSpaceOnUse">
   <stop stop-color="#2e3436" stop-opacity=".75096" offset="0"/>
   <stop stop-color="#2e3436" stop-opacity="0" offset="1"/>
  </linearGradient>
  <linearGradient id="b" x1="279" x2="488" y1="293.56" y2="575.36" gradientUnits="userSpaceOnUse">
   <stop stop-color="#888a85" offset="0"/>
   <stop offset="1"/>
  </linearGradient>
  <linearGradient id="a" x1="345.07" x2="358.65" y1="114.74" y2="434.35" gradientUnits="userSpaceOnUse">
   <stop stop-color="#fff" stop-opacity=".90421" offset="0"/>
   <stop stop-color="#fff" stop-opacity="0" offset="1"/>
  </linearGradient>
 </defs>
 <g transform="translate(-189.75 -278.84)">
  <path d="m360 296.94c-92.154 0-166.88 74.689-166.88 166.84 0 8.3576 0.62632 16.566 1.8125 24.594h330.12c1.1862-8.0278 1.8125-16.236 1.8125-24.594 0-92.154-74.721-166.84-166.88-166.84z" fill="#382509" fill-rule="evenodd" stroke="#000" stroke-width=".91252"/>
  <path d="m360 293.56c-93.978 0-170.25 76.241-170.25 170.22 0 8.3534 0.61713 16.561 1.7812 24.594h7.0625c-1.2103-8.0218-1.875-16.233-1.875-24.594 0-90.217 73.065-163.28 163.28-163.28s163.28 73.065 163.28 163.28c0 8.3607-0.6647 16.572-1.875 24.594h7.0625c1.1641-8.0325 1.7812-16.24 1.7812-24.594 0-93.978-76.272-170.22-170.25-170.22z" fill="url(#b)" fill-rule="evenodd"/>
  <path d="m360.88 303.16c-88.193 0-159.69 71.495-159.69 159.69 0 8.6955 0.72499 17.213 2.0625 25.531h315.31c1.337-8.3167 2-16.838 2-25.531 0-88.193-71.495-159.69-159.69-159.69z" fill="url(#d)" fill-rule="evenodd" stroke="#000" stroke-width=".87329"/>
  <path d="m452.56 353.16c-88.081 0-162.95 56.49-190.38 135.22h256.34c1.336-8.3138 2.0312-16.841 2.0312-25.531 0-41.681-15.971-79.626-42.125-108.06-8.4674-1.0845-17.113-1.625-25.875-1.625z" fill="url(#c)" fill-rule="evenodd"/>
  <g transform="matrix(1.1536 0 0 1.1536 2.4853 192.82)" fill="#fff" font-family="Folio" font-size="25" letter-spacing="0" text-anchor="middle" word-spacing="0">
   <path d="m292.08 129.36 1.4-1.675h0.05v12.45h2.95v-16.75h-2.4l-3.625 4.3 1.625 1.675"/>
   <path d="m305.54 128.66c0-1.75 0.875-3.225 2.75-3.225 1.6 0 2.675 1.25 2.675 2.65 0 4.55-7.925 5.5-8.375 12.05h11.225v-2.6h-7.175c1.6-2.55 7.625-5 7.625-9.4 0-3.4-2.625-5.2-5.925-5.2-3.25 0-5.65 1.675-5.85 5.725h3.05"/>
   <path d="m322.41 125.44c2 0 2.925 1.6 2.925 6.325s-0.925 6.325-2.925 6.325-2.925-1.6-2.925-6.325 0.925-6.325 2.925-6.325m-6.225 6.325c0 6.125 2.575 8.825 6.225 8.825s6.225-2.7 6.225-8.825-2.575-8.825-6.225-8.825-6.225 2.7-6.225 8.825"/>
  </g>
  <g transform="matrix(1.1536 0 0 1.1536 -54.111 207.41)" fill="#fff" font-family="Folio" font-size="25" letter-spacing="0" text-anchor="middle" word-spacing="0">
   <path d="m301.53 125.44c1.425 0 2.625 0.925 2.625 2.425 0 1.55-1.25 2.375-2.625 2.375-1.425 0-2.625-0.825-2.625-2.375 0-1.5 1.15-2.425 2.575-2.425h0.05m0-2.5c-2.625 0-5.675 1.625-5.675 4.45 0 1.95 0.75001 3.425 2.75 3.875v0.05c-1.975 0.425-3.125 1.975-3.125 4.025 0 3.25 2.45 5.25 6.05 5.25s6.05-2 6.05-5.25c0-2.05-1.15-3.6-3.125-4.025v-0.05c2-0.45 2.75-1.925 2.75-3.875 0-2.825-3.05-4.45-5.675-4.45m0 9.5c1.5 0 2.85 0.85 2.85 2.7 0 2-1.15 2.95-2.85 2.95-1.75 0-2.85-0.95-2.85-2.95 0-1.85 1.3-2.7 2.8-2.7h0.05"/>
   <path d="m315.45 125.44c2 0 2.925 1.6 2.925 6.325s-0.925 6.325-2.925 6.325-2.925-1.6-2.925-6.325 0.925-6.325 2.925-6.325m-6.225 6.325c0 6.125 2.575 8.825 6.225 8.825s6.225-2.7 6.225-8.825-2.575-8.825-6.225-8.825-6.225 2.7-6.225 8.825"/>
  </g>
  <g transform="matrix(1.1536 0 0 1.1536 -88.581 246.49)" fill="#fff" font-family="Folio" font-size="25" letter-spacing="0" text-anchor="middle" word-spacing="0">
   <path d="m305.86 123.39h-3.175l-7.475 9.45v2.675h7.7v4.625h2.95v-4.575h2.125v-2.55h-2.125v-9.625m-2.95 9.625h-4.75l4.7-6.225h0.05v6.225"/>
   <path d="m315.45 125.44c2 0 2.925 1.6 2.925 6.325s-0.925 6.325-2.925 6.325-2.925-1.6-2.925-6.325 0.925-6.325 2.925-6.325m-6.225 6.325c0 6.125 2.575 8.825 6.225 8.825s6.225-2.7 6.225-8.825-2.575-8.825-6.225-8.825-6.225 2.7-6.225 8.825"/>
  </g>
  <g transform="matrix(1.1536 0 0 1.1536 55.488 207.1)" fill="#fff" font-family="Folio" font-size="25" letter-spacing="0" text-anchor="middle" word-spacing="0">
   <path d="m292.08 129.36 1.4-1.675h0.05v12.45h2.95v-16.75h-2.4l-3.625 4.3 1.625 1.675"/>
   <path d="m305.97 134.76c0-1.9 0.875-3.575 2.825-3.575s2.825 1.675 2.825 3.575c0 1.825-0.875 3.325-2.825 3.325s-2.825-1.5-2.825-3.325m8.5-7.3c-0.6-2.95-2.4-4.525-5.425-4.525-5.275 0-6.475 5.15-6.475 9.475 0 7.275 4.225 8.175 6.325 8.175 3.35 0 5.875-2.55 5.875-5.9 0-4.5-3.075-5.75-5.3-5.75-1.675 0-2.8 0.6-3.85 2.5h-0.05c-0.125-1.95 0.50001-6 3.575-6 1.375 0 1.9 0.8 2.25 2.025h3.075"/>
   <path d="m322.41 125.44c2 0 2.925 1.6 2.925 6.325s-0.925 6.325-2.925 6.325-2.925-1.6-2.925-6.325 0.925-6.325 2.925-6.325m-6.225 6.325c0 6.125 2.575 8.825 6.225 8.825s6.225-2.7 6.225-8.825-2.575-8.825-6.225-8.825-6.225 2.7-6.225 8.825"/>
  </g>
  <g transform="matrix(1.1536 0 0 1.1536 95.237 245.36)" fill="#fff" font-family="Folio" font-size="25" letter-spacing="0" text-anchor="middle" word-spacing="0">
   <path d="m291.63 128.66c0-1.75 0.875-3.225 2.75-3.225 1.6 0 2.675 1.25 2.675 2.65 0 4.55-7.925 5.5-8.375 12.05h11.225v-2.6h-7.175c1.6-2.55 7.625-5 7.625-9.4 0-3.4-2.625-5.2-5.925-5.2-3.25 0-5.65 1.675-5.85 5.725h3.05"/>
   <path d="m308.49 125.44c2 0 2.925 1.6 2.925 6.325s-0.925 6.325-2.925 6.325-2.925-1.6-2.925-6.325 0.925-6.325 2.925-6.325m-6.225 6.325c0 6.125 2.575 8.825 6.225 8.825s6.225-2.7 6.225-8.825-2.575-8.825-6.225-8.825-6.225 2.7-6.225 8.825"/>
   <path d="m322.41 125.44c2 0 2.925 1.6 2.925 6.325s-0.925 6.325-2.925 6.325-2.925-1.6-2.925-6.325 0.925-6.325 2.925-6.325m-6.225 6.325c0 6.125 2.575 8.825 6.225 8.825s6.225-2.7 6.225-8.825-2.575-8.825-6.225-8.825-6.225 2.7-6.225 8.825"/>
  </g>
  <path d="m359.56 306.13h2.6583a1.1709 1.1709 0 0 1 1.1709 1.1709v17.851a1.1709 1.1709 0 0 1 -1.1709 1.1709h-2.6583a1.1709 1.1709 0 0 1 -1.1709 -1.1709v-17.851a1.1709 1.1709 0 0 1 1.1709 -1.1709" fill="#fff"/>
  <g transform="matrix(.86603 .5 -.5 .86603 279.46 -118.52)">
   <path d="m359.56 306.13h2.6583a1.1709 1.1709 0 0 1 1.1709 1.1709v17.851a1.1709 1.1709 0 0 1 -1.1709 1.1709h-2.6583a1.1709 1.1709 0 0 1 -1.1709 -1.1709v-17.851a1.1709 1.1709 0 0 1 1.1709 -1.1709" fill="#fff"/>
  </g>
  <g transform="matrix(.5 .86603 -.86603 .5 580.74 -81.425)">
   <path d="m359.56 306.13h2.6583a1.1709 1.1709 0 0 1 1.1709 1.1709v17.851a1.1709 1.1709 0 0 1 -1.1709 1.1709h-2.6583a1.1709 1.1709 0 0 1 -1.1709 -1.1709v-17.851a1.1709 1.1709 0 0 1 1.1709 -1.1709" fill="#fff"/>
  </g>
  <g transform="matrix(.86603 -.5 .5 .86603 -182.76 242.37)">
   <path d="m359.56 306.13h2.6583a1.1709 1.1709 0 0 1 1.1709 1.1709v17.851a1.1709 1.1709 0 0 1 -1.1709 1.1709h-2.6583a1.1709 1.1709 0 0 1 -1.1709 -1.1709v-17.851a1.1709 1.1709 0 0 1 1.1709 -1.1709" fill="#fff"/>
  </g>
  <g transform="matrix(.5 -.86603 .86603 .5 -219.86 543.65)">
   <path d="m359.56 306.13h2.6583a1.1709 1.1709 0 0 1 1.1709 1.1709v17.851a1.1709 1.1709 0 0 1 -1.1709 1.1709h-2.6583a1.1709 1.1709 0 0 1 -1.1709 -1.1709v-17.851a1.1709 1.1709 0 0 1 1.1709 -1.1709" fill="#fff"/>
  </g>
  <g transform="matrix(.49572 -.06526 .13053 .99144 120.41 27.507)">
   <path d="m359.56 306.13h2.6583a1.1709 1.1709 0 0 1 1.1709 1.1709v17.851a1.1709 1.1709 0 0 1 -1.1709 1.1709h-2.6583a1.1709 1.1709 0 0 1 -1.1709 -1.1709v-17.851a1.1709 1.1709 0 0 1 1.1709 -1.1709" fill="#fff"/>
  </g>
  <g transform="matrix(.48296 -.12941 .25882 .96593 65.71 62.452)">
   <path d="m359.56 306.13h2.6583a1.1709 1.1709 0 0 1 1.1709 1.1709v17.851a1.1709 1.1709 0 0 1 -1.1709 1.1709h-2.6583a1.1709 1.1709 0 0 1 -1.1709 -1.1709v-17.851a1.1709 1.1709 0 0 1 1.1709 -1.1709" fill="#fff"/>
  </g>
  <g transform="matrix(.46194 -.19134 .38268 .92388 16.043 104.24)">
   <path d="m359.56 306.13h2.6583a1.1709 1.1709 0 0 1 1.1709 1.1709v17.851a1.1709 1.1709 0 0 1 -1.1709 1.1709h-2.6583a1.1709 1.1709 0 0 1 -1.1709 -1.1709v-17.851a1.1709 1.1709 0 0 1 1.1709 -1.1709" fill="#fff"/>
  </g>
  <g transform="matrix(.39668 -.30438 .60876 .79335 -64.903 205.36)">
   <path d="m359.56 306.13h2.6583a1.1709 1.1709 0 0 1 1.1709 1.1709v17.851a1.1709 1.1709 0 0 1 -1.1709 1.1709h-2.6583a1.1709 1.1709 0 0 1 -1.1709 -1.1709v-17.851a1.1709 1.1709 0 0 1 1.1709 -1.1709" fill="#fff"/>
  </g>
  <g transform="matrix(.35355 -.35355 .70711 .70711 -94.798 262.98)">
   <path d="m359.56 306.13h2.6583a1.1709 1.1709 0 0 1 1.1709 1.1709v17.851a1.1709 1.1709 0 0 1 -1.1709 1.1709h-2.6583a1.1709 1.1709 0 0 1 -1.1709 -1.1709v-17.851a1.1709 1.1709 0 0 1 1.1709 -1.1709" fill="#fff"/>
  </g>
  <g transform="matrix(.30438 -.39668 .79335 .60876 -116.92 324)">
   <path d="m359.56 306.13h2.6583a1.1709 1.1709 0 0 1 1.1709 1.1709v17.851a1.1709 1.1709 0 0 1 -1.1709 1.1709h-2.6583a1.1709 1.1709 0 0 1 -1.1709 -1.1709v-17.851a1.1709 1.1709 0 0 1 1.1709 -1.1709" fill="#fff"/>
  </g>
  <g transform="matrix(.49572 .06526 -.13053 .99144 241.07 -19.598)">
   <path d="m359.56 306.13h2.6583a1.1709 1.1709 0 0 1 1.1709 1.1709v17.851a1.1709 1.1709 0 0 1 -1.1709 1.1709h-2.6583a1.1709 1.1709 0 0 1 -1.1709 -1.1709v-17.851a1.1709 1.1709 0 0 1 1.1709 -1.1709" fill="#fff"/>
  </g>
  <g transform="matrix(.48296 .12941 -.25882 .96593 304.98 -30.952)">
   <path d="m359.56 306.13h2.6583a1.1709 1.1709 0 0 1 1.1709 1.1709v17.851a1.1709 1.1709 0 0 1 -1.1709 1.1709h-2.6583a1.1709 1.1709 0 0 1 -1.1709 -1.1709v-17.851a1.1709 1.1709 0 0 1 1.1709 -1.1709" fill="#fff"/>
  </g>
  <g transform="matrix(.46194 .19134 -.38268 .92388 369.82 -33.868)">
   <path d="m359.56 306.13h2.6583a1.1709 1.1709 0 0 1 1.1709 1.1709v17.851a1.1709 1.1709 0 0 1 -1.1709 1.1709h-2.6583a1.1709 1.1709 0 0 1 -1.1709 -1.1709v-17.851a1.1709 1.1709 0 0 1 1.1709 -1.1709" fill="#fff"/>
  </g>
  <g transform="matrix(.39668 .30438 -.60876 .79335 497.87 -14.33)">
   <path d="m359.56 306.13h2.6583a1.1709 1.1709 0 0 1 1.1709 1.1709v17.851a1.1709 1.1709 0 0 1 -1.1709 1.1709h-2.6583a1.1709 1.1709 0 0 1 -1.1709 -1.1709v-17.851a1.1709 1.1709 0 0 1 1.1709 -1.1709" fill="#fff"/>
  </g>
  <g transform="matrix(.35355 .35355 -.70711 .70711 558.89 7.7896)">
   <path d="m359.56 306.13h2.6583a1.1709 1.1709 0 0 1 1.1709 1.1709v17.851a1.1709 1.1709 0 0 1 -1.1709 1.1709h-2.6583a1.1709 1.1709 0 0 1 -1.1709 -1.1709v-17.851a1.1709 1.1709 0 0 1 1.1709 -1.1709" fill="#fff"/>
  </g>
  <g transform="matrix(.30438 .39668 -.79335 .60876 616.5 37.685)">
   <path d="m359.56 306.13h2.6583a1.1709 1.1709 0 0 1 1.1709 1.1709v17.851a1.1709 1.1709 0 0 1 -1.1709 1.1709h-2.6583a1.1709 1.1709 0 0 1 -1.1709 -1.1709v-17.851a1.1709 1.1709 0 0 1 1.1709 -1.1709" fill="#fff"/>
  </g>
  <g transform="matrix(.19134 .46194 -.92388 .38268 717.63 118.63)">
   <path d="m359.56 306.13h2.6583a1.1709 1.1709 0 0 1 1.1709 1.1709v17.851a1.1709 1.1709 0 0 1 -1.1709 1.1709h-2.6583a1.1709 1.1709 0 0 1 -1.1709 -1.1709v-17.851a1.1709 1.1709 0 0 1 1.1709 -1.1709" fill="#fff"/>
  </g>
  <g transform="matrix(.19134 -.46194 .92388 .38268 -136.46 452.05)">
   <path d="m359.56 306.13h2.6583a1.1709 1.1709 0 0 1 1.1709 1.1709v17.851a1.1709 1.1709 0 0 1 -1.1709 1.1709h-2.6583a1.1709 1.1709 0 0 1 -1.1709 -1.1709v-17.851a1.1709 1.1709 0 0 1 1.1709 -1.1709" fill="#fff"/>
  </g>
  <g transform="matrix(.12941 -.48296 .96593 .25882 -133.54 516.89)">
   <path d="m359.56 306.13h2.6583a1.1709 1.1709 0 0 1 1.1709 1.1709v17.851a1.1709 1.1709 0 0 1 -1.1709 1.1709h-2.6583a1.1709 1.1709 0 0 1 -1.1709 -1.1709v-17.851a1.1709 1.1709 0 0 1 1.1709 -1.1709" fill="#fff"/>
  </g>
  <g transform="matrix(.06526 -.49572 .99144 .13053 -122.19 580.79)" fill="#fff">
   <path d="m359.56 306.13h2.6583a1.1709 1.1709 0 0 1 1.1709 1.1709v17.851a1.1709 1.1709 0 0 1 -1.1709 1.1709h-2.6583a1.1709 1.1709 0 0 1 -1.1709 -1.1709v-17.851a1.1709 1.1709 0 0 1 1.1709 -1.1709"/>
   <path d="m359.56 598.13h2.6583a1.1709 1.1709 0 0 1 1.1709 1.1709v17.851a1.1709 1.1709 0 0 1 -1.1709 1.1709h-2.6583a1.1709 1.1709 0 0 1 -1.1709 -1.1709v-17.851a1.1709 1.1709 0 0 1 1.1709 -1.1709"/>
  </g>
  <g transform="matrix(0 -1 1 0 -102.59 821.86)" fill="#fff">
   <path d="m359.56 306.13h2.6583a1.1709 1.1709 0 0 1 1.1709 1.1709v17.851a1.1709 1.1709 0 0 1 -1.1709 1.1709h-2.6583a1.1709 1.1709 0 0 1 -1.1709 -1.1709v-17.851a1.1709 1.1709 0 0 1 1.1709 -1.1709"/>
   <path d="m359.56 598.13h2.6583a1.1709 1.1709 0 0 1 1.1709 1.1709v17.851a1.1709 1.1709 0 0 1 -1.1709 1.1709h-2.6583a1.1709 1.1709 0 0 1 -1.1709 -1.1709v-17.851a1.1709 1.1709 0 0 1 1.1709 -1.1709"/>
  </g>
  <g transform="matrix(.12941 .48296 -.96593 .25882 759.41 168.3)">
   <path d="m359.56 306.13h2.6583a1.1709 1.1709 0 0 1 1.1709 1.1709v17.851a1.1709 1.1709 0 0 1 -1.1709 1.1709h-2.6583a1.1709 1.1709 0 0 1 -1.1709 -1.1709v-17.851a1.1709 1.1709 0 0 1 1.1709 -1.1709" fill="#fff"/>
  </g>
  <g transform="matrix(.06526 .49572 -.99144 .13053 794.36 222.99)" fill="#fff">
   <path d="m359.56 306.13h2.6583a1.1709 1.1709 0 0 1 1.1709 1.1709v17.851a1.1709 1.1709 0 0 1 -1.1709 1.1709h-2.6583a1.1709 1.1709 0 0 1 -1.1709 -1.1709v-17.851a1.1709 1.1709 0 0 1 1.1709 -1.1709"/>
   <path d="m359.56 598.13h2.6583a1.1709 1.1709 0 0 1 1.1709 1.1709v17.851a1.1709 1.1709 0 0 1 -1.1709 1.1709h-2.6583a1.1709 1.1709 0 0 1 -1.1709 -1.1709v-17.851a1.1709 1.1709 0 0 1 1.1709 -1.1709"/>
  </g>
  <path d="m391.31 343.02 1.336 0.35799-28.987 122.52-5.0866 8.775-3.4028-0.91177-0.0176-10.143 36.158-120.6z" fill="#fff"/>
  <path d="m394.22 344.12-35.106 131.02 1.8084 0.48456 5.0811-8.7584 28.991-122.54-0.77503-0.20767z"/>
  <path d="m392.22 342.62-35.106 131.02 1.8084 0.48456 5.0811-8.7584 28.991-122.54-0.77503-0.20767z" fill="#babdb6"/>
  <path d="m360.88 303.16c-16.78 0-32.962 2.6072-48.156 7.4062l-31.812 177.81h185.19l-51.469-175.94c-16.797-6.0037-34.889-9.2812-53.75-9.2812z" fill="url(#a)" filter="url(#e)"/>
 </g>
</svg>
